<?xml version="1.0" encoding="UTF-8" standalone="no"?>
<!DOCTYPE svg PUBLIC "-//W3C//DTD SVG 1.1//EN" "http://www.w3.org/Graphics/SVG/1.1/DTD/svg11.dtd">
<!-- Generated by graphviz version 2.40.1 (20161225.0304)
 -->
<!-- Title: G Pages: 1 -->
<svg width="717pt" height="926pt" viewBox="0.00 0.00 717.34 926.00" xmlns="http://www.w3.org/2000/svg" xmlns:xlink="http://www.w3.org/1999/xlink">
<g id="graph0" class="graph" transform="scale(1 1) rotate(0) translate(4 922)">
<title>G</title>
<polygon fill="#ffffff" stroke="transparent" points="-4,4 -4,-922 713.3372,-922 713.3372,4 -4,4"/>
<!-- a1 -->
<g id="node1" class="node">
<title>a1</title>
<ellipse fill="none" stroke="#000000" cx="512.1962" cy="-900" rx="90.3275" ry="18"/>
<text text-anchor="middle" x="512.1962" y="-895.8" font-family="Times,serif" font-size="14.00" fill="#000000">buildMaxHeap(List)</text>
</g>
<!-- c1 -->
<g id="node2" class="node">
<title>c1</title>
<polygon fill="none" stroke="#000000" points="443.1962,-845 331.8481,-827 443.1962,-809 554.5443,-827 443.1962,-845"/>
<text text-anchor="middle" x="443.1962" y="-822.8" font-family="Times,serif" font-size="14.00" fill="#000000">&lt;N1&gt; list empty?</text>
</g>
<!-- a1&#45;&gt;c1 -->
<g id="edge1" class="edge">
<title>a1-&gt;c1</title>
<path fill="none" stroke="#000000" d="M495.14,-881.9551C486.1083,-872.3998 474.9123,-860.5547 465.2298,-850.3109"/>
<polygon fill="#000000" stroke="#000000" points="467.5942,-847.7172 458.1815,-842.854 462.5071,-852.5256 467.5942,-847.7172"/>
</g>
<!-- c2 -->
<g id="node3" class="node">
<title>c2</title>
<polygon fill="none" stroke="#000000" points="524.0526,-756.2 444.3398,-756.2 444.3398,-720.2 524.0526,-720.2 524.0526,-756.2"/>
<text text-anchor="middle" x="484.1962" y="-734" font-family="Times,serif" font-size="14.00" fill="#000000">return heap</text>
</g>
<!-- c1&#45;&gt;c2 -->
<g id="edge2" class="edge">
<title>c1-&gt;c2</title>
<path fill="none" stroke="#000000" d="M451.1014,-809.8785C456.849,-797.4299 464.7533,-780.3105 471.3957,-765.924"/>
<polygon fill="#000000" stroke="#000000" points="474.7364,-767.0379 475.7507,-756.4917 468.3811,-764.1036 474.7364,-767.0379"/>
<text text-anchor="middle" x="479.0791" y="-778.4" font-family="Times,serif" font-size="14.00" fill="#000000">true</text>
</g>
<!-- inc -->
<g id="node4" class="node">
<title>inc</title>
<polygon fill="none" stroke="#000000" points="426.4226,-756.2 247.9698,-756.2 247.9698,-720.2 426.4226,-720.2 426.4226,-756.2"/>
<text text-anchor="middle" x="337.1962" y="-734" font-family="Times,serif" font-size="14.00" fill="#000000">&lt;N2&gt; increment size of heap</text>
</g>
<!-- c1&#45;&gt;inc -->
<g id="edge3" class="edge">
<title>c1-&gt;inc</title>
<path fill="none" stroke="#000000" d="M424.7324,-811.5322C408.7148,-798.1137 385.2431,-778.4506 366.6358,-762.8626"/>
<polygon fill="#000000" stroke="#000000" points="368.6479,-759.9824 358.7347,-756.2436 364.1527,-765.3483 368.6479,-759.9824"/>
<text text-anchor="middle" x="413.4087" y="-778.4" font-family="Times,serif" font-size="14.00" fill="#000000">false</text>
</g>
<!-- a2 -->
<g id="node5" class="node">
<title>a2</title>
<polygon fill="none" stroke="#000000" points="442.0668,-683.2 232.3256,-683.2 232.3256,-647.2 442.0668,-647.2 442.0668,-683.2"/>
<text text-anchor="middle" x="337.1962" y="-661" font-family="Times,serif" font-size="14.00" fill="#000000">&lt;N3&gt; split List into Head and Tail</text>
</g>
<!-- inc&#45;&gt;a2 -->
<g id="edge4" class="edge">
<title>inc-&gt;a2</title>
<path fill="none" stroke="#000000" d="M337.1962,-720.1551C337.1962,-712.0828 337.1962,-702.3764 337.1962,-693.3817"/>
<polygon fill="#000000" stroke="#000000" points="340.6963,-693.2903 337.1962,-683.2904 333.6963,-693.2904 340.6963,-693.2903"/>
</g>
<!-- tmp -->
<g id="node6" class="node">
<title>tmp</title>
<polygon fill="none" stroke="#000000" points="385.675,-610.2 288.7174,-610.2 288.7174,-574.2 385.675,-574.2 385.675,-610.2"/>
<text text-anchor="middle" x="337.1962" y="-588" font-family="Times,serif" font-size="14.00" fill="#000000">Temp := Head</text>
</g>
<!-- a2&#45;&gt;tmp -->
<g id="edge5" class="edge">
<title>a2-&gt;tmp</title>
<path fill="none" stroke="#000000" d="M337.1962,-647.1551C337.1962,-639.0828 337.1962,-629.3764 337.1962,-620.3817"/>
<polygon fill="#000000" stroke="#000000" points="340.6963,-620.2903 337.1962,-610.2904 333.6963,-620.2904 340.6963,-620.2903"/>
</g>
<!-- a3 -->
<g id="node7" class="node">
<title>a3</title>
<polygon fill="none" stroke="#000000" points="337.1962,-537.2 211.5563,-519.2 337.1962,-501.2 462.8361,-519.2 337.1962,-537.2"/>
<text text-anchor="middle" x="337.1962" y="-515" font-family="Times,serif" font-size="14.00" fill="#000000">&lt;N4&gt; Heap Empty?</text>
</g>
<!-- tmp&#45;&gt;a3 -->
<g id="edge6" class="edge">
<title>tmp-&gt;a3</title>
<path fill="none" stroke="#000000" d="M337.1962,-574.1551C337.1962,-566.0828 337.1962,-556.3764 337.1962,-547.3817"/>
<polygon fill="#000000" stroke="#000000" points="340.6963,-547.2903 337.1962,-537.2904 333.6963,-547.2904 340.6963,-547.2903"/>
</g>
<!-- a4 -->
<g id="node8" class="node">
<title>a4</title>
<polygon fill="none" stroke="#000000" points="554.2924,-448.4 334.1,-448.4 334.1,-412.4 554.2924,-412.4 554.2924,-448.4"/>
<text text-anchor="middle" x="444.1962" y="-426.2" font-family="Times,serif" font-size="14.00" fill="#000000">put Temp as root of Heap and return</text>
</g>
<!-- a3&#45;&gt;a4 -->
<g id="edge7" class="edge">
<title>a3-&gt;a4</title>
<path fill="none" stroke="#000000" d="M355.8342,-503.7322C372.0754,-490.2535 395.9087,-470.4741 414.7312,-454.8532"/>
<polygon fill="#000000" stroke="#000000" points="416.9945,-457.5232 422.4545,-448.4436 412.5241,-452.1366 416.9945,-457.5232"/>
<text text-anchor="middle" x="412.0791" y="-470.6" font-family="Times,serif" font-size="14.00" fill="#000000">true</text>
</g>
<!-- b1 -->
<g id="node13" class="node">
<title>b1</title>
<polygon fill="none" stroke="#000000" points="316.5888,-448.4 -.1964,-448.4 -.1964,-412.4 316.5888,-412.4 316.5888,-448.4"/>
<text text-anchor="middle" x="158.1962" y="-426.2" font-family="Times,serif" font-size="14.00" fill="#000000">&lt;N5&gt; calculate Path for current Position into path list</text>
</g>
<!-- a3&#45;&gt;b1 -->
<g id="edge12" class="edge">
<title>a3-&gt;b1</title>
<path fill="none" stroke="#000000" d="M308.8331,-505.1294C280.6291,-491.1377 236.9093,-469.4487 203.8205,-453.0338"/>
<polygon fill="#000000" stroke="#000000" points="205.3052,-449.8633 194.7915,-448.5545 202.1943,-456.1341 205.3052,-449.8633"/>
<text text-anchor="middle" x="277.4087" y="-470.6" font-family="Times,serif" font-size="14.00" fill="#000000">false</text>
</g>
<!-- a5 -->
<g id="node9" class="node">
<title>a5</title>
<polygon fill="none" stroke="#000000" points="323.1962,-375.4 147.748,-357.4 323.1962,-339.4 498.6444,-357.4 323.1962,-375.4"/>
<text text-anchor="middle" x="323.1962" y="-353.2" font-family="Times,serif" font-size="14.00" fill="#000000">&lt;N5&gt; Temp &gt; current Node?</text>
</g>
<!-- a6 -->
<g id="node10" class="node">
<title>a6</title>
<polygon fill="none" stroke="#000000" points="464.8815,-286.6 295.5109,-286.6 295.5109,-250.6 464.8815,-250.6 464.8815,-286.6"/>
<text text-anchor="middle" x="380.1962" y="-264.4" font-family="Times,serif" font-size="14.00" fill="#000000">put Temp into current node</text>
</g>
<!-- a5&#45;&gt;a6 -->
<g id="edge8" class="edge">
<title>a5-&gt;a6</title>
<path fill="none" stroke="#000000" d="M334.1864,-340.2785C342.3307,-327.5905 353.5896,-310.0503 362.9312,-295.4971"/>
<polygon fill="#000000" stroke="#000000" points="365.9984,-297.1979 368.4549,-286.8917 360.1076,-293.4166 365.9984,-297.1979"/>
<text text-anchor="middle" x="368.0791" y="-308.8" font-family="Times,serif" font-size="14.00" fill="#000000">true</text>
</g>
<!-- b3 -->
<g id="node12" class="node">
<title>b3</title>
<polygon fill="none" stroke="#000000" points="471.1962,-124.8 332.9904,-106.8 471.1962,-88.8 609.402,-106.8 471.1962,-124.8"/>
<text text-anchor="middle" x="471.1962" y="-102.6" font-family="Times,serif" font-size="14.00" fill="#000000">&lt;N6&gt; path list empty?</text>
</g>
<!-- a5&#45;&gt;b3 -->
<g id="edge11" class="edge">
<title>a5-&gt;b3</title>
<path fill="none" stroke="#000000" d="M380.1075,-345.2006C412.8995,-335.1171 451.9176,-317.2972 474.1962,-286.6 506.8812,-241.5641 492.5974,-172.0788 480.9048,-134.0225"/>
<polygon fill="#000000" stroke="#000000" points="484.1251,-132.6057 477.7168,-124.1686 477.465,-134.7604 484.1251,-132.6057"/>
<text text-anchor="middle" x="515.4087" y="-220" font-family="Times,serif" font-size="14.00" fill="#000000">  false  </text>
</g>
<!-- a8 -->
<g id="node11" class="node">
<title>a8</title>
<polygon fill="none" stroke="#000000" points="475.8855,-197.8 316.5069,-197.8 316.5069,-161.8 475.8855,-161.8 475.8855,-197.8"/>
<text text-anchor="middle" x="396.1962" y="-175.6" font-family="Times,serif" font-size="14.00" fill="#000000">Temp := old current node</text>
</g>
<!-- a6&#45;&gt;a8 -->
<g id="edge9" class="edge">
<title>a6-&gt;a8</title>
<path fill="none" stroke="#000000" d="M383.5114,-250.2006C385.7142,-237.975 388.6487,-221.6887 391.1404,-207.8599"/>
<polygon fill="#000000" stroke="#000000" points="394.6112,-208.3342 392.94,-197.872 387.7221,-207.0929 394.6112,-208.3342"/>
</g>
<!-- a8&#45;&gt;b3 -->
<g id="edge10" class="edge">
<title>a8-&gt;b3</title>
<path fill="none" stroke="#000000" d="M414.7355,-161.7551C424.579,-152.1741 436.7878,-140.2909 447.3317,-130.0282"/>
<polygon fill="#000000" stroke="#000000" points="449.9326,-132.3808 454.6574,-122.8978 445.0501,-127.3646 449.9326,-132.3808"/>
</g>
<!-- b3&#45;&gt;a1 -->
<g id="edge16" class="edge">
<title>b3-&gt;a1</title>
<path fill="none" stroke="#000000" d="M519.5595,-118.5166C549.4717,-128.9736 582.1962,-147.7399 582.1962,-179.8 582.1962,-827 582.1962,-827 582.1962,-827 582.1962,-847.4848 567.6586,-864.4596 551.8335,-876.8692"/>
<polygon fill="#000000" stroke="#000000" points="549.5295,-874.2176 543.5109,-882.937 553.6533,-879.874 549.5295,-874.2176"/>
<text text-anchor="middle" x="645.7667" y="-515" font-family="Times,serif" font-size="14.00" fill="#000000">true; continue with tail</text>
</g>
<!-- b2 -->
<g id="node14" class="node">
<title>b2</title>
<polygon fill="none" stroke="#000000" points="243.1994,-36 25.193,-36 25.193,0 243.1994,0 243.1994,-36"/>
<text text-anchor="middle" x="134.1962" y="-13.8" font-family="Times,serif" font-size="14.00" fill="#000000">&lt;N7&gt; traverse according to path list</text>
</g>
<!-- b3&#45;&gt;b2 -->
<g id="edge15" class="edge">
<title>b3-&gt;b2</title>
<path fill="none" stroke="#000000" d="M425.3962,-94.7316C370.7905,-80.343 278.6356,-56.06 212.6144,-38.6633"/>
<polygon fill="#000000" stroke="#000000" points="213.2238,-35.2045 202.662,-36.0408 211.4401,-41.9734 213.2238,-35.2045"/>
<text text-anchor="middle" x="346.4087" y="-58.2" font-family="Times,serif" font-size="14.00" fill="#000000">false</text>
</g>
<!-- b1&#45;&gt;a5 -->
<g id="edge13" class="edge">
<title>b1-&gt;a5</title>
<path fill="none" stroke="#000000" d="M198.9827,-412.3551C223.8614,-401.3481 255.608,-387.3026 280.7788,-376.1665"/>
<polygon fill="#000000" stroke="#000000" points="282.3468,-379.3001 290.0757,-372.0533 279.5146,-372.8986 282.3468,-379.3001"/>
</g>
<!-- b2&#45;&gt;a5 -->
<g id="edge14" class="edge">
<title>b2-&gt;a5</title>
<path fill="none" stroke="#000000" d="M128.9572,-36.1952C124.2909,-54.0246 118.1962,-82.0494 118.1962,-106.8 118.1962,-268.6 118.1962,-268.6 118.1962,-268.6 118.1962,-299.6457 198.3623,-326.5886 258.4319,-342.4194"/>
<polygon fill="#000000" stroke="#000000" points="257.7023,-345.8458 268.26,-344.9588 259.4535,-339.0684 257.7023,-345.8458"/>
<text text-anchor="middle" x="208.5837" y="-175.6" font-family="Times,serif" font-size="14.00" fill="#000000"> continue with new current node</text>
</g>
</g>
</svg>