<?xml version="1.0" encoding="UTF-8" standalone="no"?>
<!DOCTYPE svg PUBLIC "-//W3C//DTD SVG 1.1//EN" "http://www.w3.org/Graphics/SVG/1.1/DTD/svg11.dtd">
<!-- Generated by graphviz version 2.40.1 (20161225.0304)
 -->
<!-- Title: G Pages: 1 -->
<svg width="681pt" height="926pt" viewBox="0.00 0.00 681.14 926.00" xmlns="http://www.w3.org/2000/svg" xmlns:xlink="http://www.w3.org/1999/xlink">
<g id="graph0" class="graph" transform="scale(1 1) rotate(0) translate(4 922)">
<title>G</title>
<polygon fill="#ffffff" stroke="transparent" points="-4,4 -4,-922 677.1393,-922 677.1393,4 -4,4"/>
<!-- a1 -->
<g id="node1" class="node">
<title>a1</title>
<ellipse fill="none" stroke="#000000" cx="493.9983" cy="-900" rx="90.3275" ry="18"/>
<text text-anchor="middle" x="493.9983" y="-895.8" font-family="Times,serif" font-size="14.00" fill="#000000">buildMaxHeap(List)</text>
</g>
<!-- c1 -->
<g id="node2" class="node">
<title>c1</title>
<polygon fill="none" stroke="#000000" points="441.9983,-845 366.1583,-827 441.9983,-809 517.8383,-827 441.9983,-845"/>
<text text-anchor="middle" x="441.9983" y="-822.8" font-family="Times,serif" font-size="14.00" fill="#000000">list empty?</text>
</g>
<!-- a1&#45;&gt;c1 -->
<g id="edge1" class="edge">
<title>a1-&gt;c1</title>
<path fill="none" stroke="#000000" d="M481.1444,-881.9551C474.5381,-872.6808 466.3952,-861.2495 459.25,-851.2188"/>
<polygon fill="#000000" stroke="#000000" points="461.9441,-848.9682 453.2915,-842.854 456.2427,-853.0295 461.9441,-848.9682"/>
</g>
<!-- c2 -->
<g id="node3" class="node">
<title>c2</title>
<polygon fill="none" stroke="#000000" points="499.8547,-756.2 420.1419,-756.2 420.1419,-720.2 499.8547,-720.2 499.8547,-756.2"/>
<text text-anchor="middle" x="459.9983" y="-734" font-family="Times,serif" font-size="14.00" fill="#000000">return heap</text>
</g>
<!-- c1&#45;&gt;c2 -->
<g id="edge2" class="edge">
<title>c1-&gt;c2</title>
<path fill="none" stroke="#000000" d="M445.5545,-809.456C448.0365,-797.2115 451.4033,-780.602 454.262,-766.4993"/>
<polygon fill="#000000" stroke="#000000" points="457.7694,-766.8133 456.3259,-756.3172 450.9089,-765.4226 457.7694,-766.8133"/>
<text text-anchor="middle" x="463.8812" y="-778.4" font-family="Times,serif" font-size="14.00" fill="#000000">true</text>
</g>
<!-- inc -->
<g id="node4" class="node">
<title>inc</title>
<polygon fill="none" stroke="#000000" points="402.3291,-756.2 259.6675,-756.2 259.6675,-720.2 402.3291,-720.2 402.3291,-756.2"/>
<text text-anchor="middle" x="330.9983" y="-734" font-family="Times,serif" font-size="14.00" fill="#000000">increment size of heap</text>
</g>
<!-- c1&#45;&gt;inc -->
<g id="edge3" class="edge">
<title>c1-&gt;inc</title>
<path fill="none" stroke="#000000" d="M424.1642,-812.7327C407.3592,-799.2887 381.8305,-778.8658 361.7432,-762.7959"/>
<polygon fill="#000000" stroke="#000000" points="363.7825,-759.9452 353.7874,-756.4313 359.4097,-765.4113 363.7825,-759.9452"/>
<text text-anchor="middle" x="410.2108" y="-778.4" font-family="Times,serif" font-size="14.00" fill="#000000">false</text>
</g>
<!-- a2 -->
<g id="node5" class="node">
<title>a2</title>
<polygon fill="none" stroke="#000000" points="417.9738,-683.2 244.0228,-683.2 244.0228,-647.2 417.9738,-647.2 417.9738,-683.2"/>
<text text-anchor="middle" x="330.9983" y="-661" font-family="Times,serif" font-size="14.00" fill="#000000">split List into Head and Tail</text>
</g>
<!-- inc&#45;&gt;a2 -->
<g id="edge4" class="edge">
<title>inc-&gt;a2</title>
<path fill="none" stroke="#000000" d="M330.9983,-720.1551C330.9983,-712.0828 330.9983,-702.3764 330.9983,-693.3817"/>
<polygon fill="#000000" stroke="#000000" points="334.4984,-693.2903 330.9983,-683.2904 327.4984,-693.2904 334.4984,-693.2903"/>
</g>
<!-- tmp -->
<g id="node6" class="node">
<title>tmp</title>
<polygon fill="none" stroke="#000000" points="379.4771,-610.2 282.5195,-610.2 282.5195,-574.2 379.4771,-574.2 379.4771,-610.2"/>
<text text-anchor="middle" x="330.9983" y="-588" font-family="Times,serif" font-size="14.00" fill="#000000">Temp := Head</text>
</g>
<!-- a2&#45;&gt;tmp -->
<g id="edge5" class="edge">
<title>a2-&gt;tmp</title>
<path fill="none" stroke="#000000" d="M330.9983,-647.1551C330.9983,-639.0828 330.9983,-629.3764 330.9983,-620.3817"/>
<polygon fill="#000000" stroke="#000000" points="334.4984,-620.2903 330.9983,-610.2904 327.4984,-620.2904 334.4984,-620.2903"/>
</g>
<!-- a3 -->
<g id="node7" class="node">
<title>a3</title>
<polygon fill="none" stroke="#000000" points="330.9983,-537.2 240.8664,-519.2 330.9983,-501.2 421.1302,-519.2 330.9983,-537.2"/>
<text text-anchor="middle" x="330.9983" y="-515" font-family="Times,serif" font-size="14.00" fill="#000000">Heap Empty?</text>
</g>
<!-- tmp&#45;&gt;a3 -->
<g id="edge6" class="edge">
<title>tmp-&gt;a3</title>
<path fill="none" stroke="#000000" d="M330.9983,-574.1551C330.9983,-566.0828 330.9983,-556.3764 330.9983,-547.3817"/>
<polygon fill="#000000" stroke="#000000" points="334.4984,-547.2903 330.9983,-537.2904 327.4984,-547.2904 334.4984,-547.2903"/>
</g>
<!-- a4 -->
<g id="node8" class="node">
<title>a4</title>
<polygon fill="none" stroke="#000000" points="518.0945,-448.4 297.9021,-448.4 297.9021,-412.4 518.0945,-412.4 518.0945,-448.4"/>
<text text-anchor="middle" x="407.9983" y="-426.2" font-family="Times,serif" font-size="14.00" fill="#000000">put Temp as root of Heap and return</text>
</g>
<!-- a3&#45;&gt;a4 -->
<g id="edge7" class="edge">
<title>a3-&gt;a4</title>
<path fill="none" stroke="#000000" d="M344.4107,-503.7322C355.7852,-490.6146 372.3344,-471.5292 385.6985,-456.1172"/>
<polygon fill="#000000" stroke="#000000" points="388.4455,-458.2917 392.3524,-448.4436 383.1568,-453.7058 388.4455,-458.2917"/>
<text text-anchor="middle" x="387.8812" y="-470.6" font-family="Times,serif" font-size="14.00" fill="#000000">true</text>
</g>
<!-- b1 -->
<g id="node13" class="node">
<title>b1</title>
<polygon fill="none" stroke="#000000" points="279.9949,-448.4 .0017,-448.4 .0017,-412.4 279.9949,-412.4 279.9949,-448.4"/>
<text text-anchor="middle" x="139.9983" y="-426.2" font-family="Times,serif" font-size="14.00" fill="#000000">calculate Path for current Position into path list</text>
</g>
<!-- a3&#45;&gt;b1 -->
<g id="edge12" class="edge">
<title>a3-&gt;b1</title>
<path fill="none" stroke="#000000" d="M303.6327,-506.4771C273.6162,-492.5218 224.8618,-469.8548 188.3649,-452.8867"/>
<polygon fill="#000000" stroke="#000000" points="189.4399,-449.5267 178.8964,-448.4846 186.4888,-455.8742 189.4399,-449.5267"/>
<text text-anchor="middle" x="266.2108" y="-470.6" font-family="Times,serif" font-size="14.00" fill="#000000">false</text>
</g>
<!-- a5 -->
<g id="node9" class="node">
<title>a5</title>
<polygon fill="none" stroke="#000000" points="317.9983,-375.4 178.0582,-357.4 317.9983,-339.4 457.9384,-357.4 317.9983,-375.4"/>
<text text-anchor="middle" x="317.9983" y="-353.2" font-family="Times,serif" font-size="14.00" fill="#000000">Temp &gt; current Node?</text>
</g>
<!-- a6 -->
<g id="node10" class="node">
<title>a6</title>
<polygon fill="none" stroke="#000000" points="440.6836,-286.6 271.313,-286.6 271.313,-250.6 440.6836,-250.6 440.6836,-286.6"/>
<text text-anchor="middle" x="355.9983" y="-264.4" font-family="Times,serif" font-size="14.00" fill="#000000">put Temp into current node</text>
</g>
<!-- a5&#45;&gt;a6 -->
<g id="edge8" class="edge">
<title>a5-&gt;a6</title>
<path fill="none" stroke="#000000" d="M325.3251,-340.2785C330.6522,-327.8299 337.978,-310.7105 344.1344,-296.324"/>
<polygon fill="#000000" stroke="#000000" points="347.4543,-297.4623 348.1708,-286.8917 341.0187,-294.7084 347.4543,-297.4623"/>
<text text-anchor="middle" x="351.8812" y="-308.8" font-family="Times,serif" font-size="14.00" fill="#000000">true</text>
</g>
<!-- b3 -->
<g id="node12" class="node">
<title>b3</title>
<polygon fill="none" stroke="#000000" points="442.9983,-124.8 340.3005,-106.8 442.9983,-88.8 545.6961,-106.8 442.9983,-124.8"/>
<text text-anchor="middle" x="442.9983" y="-102.6" font-family="Times,serif" font-size="14.00" fill="#000000">path list empty?</text>
</g>
<!-- a5&#45;&gt;b3 -->
<g id="edge11" class="edge">
<title>a5-&gt;b3</title>
<path fill="none" stroke="#000000" d="M364.0954,-345.1775C393.8163,-334.7401 430.4454,-316.5372 449.9983,-286.6 480.4464,-239.9815 465.1015,-171.1174 452.9707,-133.5845"/>
<polygon fill="#000000" stroke="#000000" points="456.2033,-132.2184 449.6752,-123.8737 449.5746,-134.468 456.2033,-132.2184"/>
<text text-anchor="middle" x="488.2108" y="-220" font-family="Times,serif" font-size="14.00" fill="#000000">  false  </text>
</g>
<!-- a8 -->
<g id="node11" class="node">
<title>a8</title>
<polygon fill="none" stroke="#000000" points="447.6876,-197.8 288.309,-197.8 288.309,-161.8 447.6876,-161.8 447.6876,-197.8"/>
<text text-anchor="middle" x="367.9983" y="-175.6" font-family="Times,serif" font-size="14.00" fill="#000000">Temp := old current node</text>
</g>
<!-- a6&#45;&gt;a8 -->
<g id="edge9" class="edge">
<title>a6-&gt;a8</title>
<path fill="none" stroke="#000000" d="M358.4847,-250.2006C360.1368,-237.975 362.3377,-221.6887 364.2064,-207.8599"/>
<polygon fill="#000000" stroke="#000000" points="367.6853,-208.2507 365.5561,-197.872 360.7484,-207.3132 367.6853,-208.2507"/>
</g>
<!-- a8&#45;&gt;b3 -->
<g id="edge10" class="edge">
<title>a8-&gt;b3</title>
<path fill="none" stroke="#000000" d="M386.5376,-161.7551C396.5905,-151.9702 409.1105,-139.7842 419.8045,-129.3753"/>
<polygon fill="#000000" stroke="#000000" points="422.4825,-131.653 427.2073,-122.1699 417.6,-126.6368 422.4825,-131.653"/>
</g>
<!-- b3&#45;&gt;a1 -->
<g id="edge16" class="edge">
<title>b3-&gt;a1</title>
<path fill="none" stroke="#000000" d="M483.411,-117.8181C512.267,-128.4248 545.9983,-147.6906 545.9983,-179.8 545.9983,-827 545.9983,-827 545.9983,-827 545.9983,-845.3404 534.9751,-862.2672 523.0792,-875.1942"/>
<polygon fill="#000000" stroke="#000000" points="520.5788,-872.7451 516.051,-882.3237 525.5638,-877.6593 520.5788,-872.7451"/>
<text text-anchor="middle" x="609.5688" y="-515" font-family="Times,serif" font-size="14.00" fill="#000000">true; continue with tail</text>
</g>
<!-- b2 -->
<g id="node14" class="node">
<title>b2</title>
<polygon fill="none" stroke="#000000" points="196.6061,-36 15.3905,-36 15.3905,0 196.6061,0 196.6061,-36"/>
<text text-anchor="middle" x="105.9983" y="-13.8" font-family="Times,serif" font-size="14.00" fill="#000000">traverse according to path list</text>
</g>
<!-- b3&#45;&gt;b2 -->
<g id="edge15" class="edge">
<title>b3-&gt;b2</title>
<path fill="none" stroke="#000000" d="M401.6755,-95.9114C347.7339,-81.6977 252.22,-56.5296 184.3547,-38.647"/>
<polygon fill="#000000" stroke="#000000" points="185.1124,-35.2273 174.5507,-36.0636 183.3287,-41.9962 185.1124,-35.2273"/>
<text text-anchor="middle" x="318.2108" y="-58.2" font-family="Times,serif" font-size="14.00" fill="#000000">false</text>
</g>
<!-- b1&#45;&gt;a5 -->
<g id="edge13" class="edge">
<title>b1-&gt;a5</title>
<path fill="none" stroke="#000000" d="M183.9983,-412.3551C211.8104,-400.949 247.5785,-386.28 275.1641,-374.9668"/>
<polygon fill="#000000" stroke="#000000" points="276.6297,-378.1488 284.5538,-371.116 273.9736,-371.6722 276.6297,-378.1488"/>
</g>
<!-- b2&#45;&gt;a5 -->
<g id="edge14" class="edge">
<title>b2-&gt;a5</title>
<path fill="none" stroke="#000000" d="M100.7593,-36.1952C96.093,-54.0246 89.9983,-82.0494 89.9983,-106.8 89.9983,-268.6 89.9983,-268.6 89.9983,-268.6 89.9983,-303.3486 183.1155,-329.9504 250.3333,-344.6265"/>
<polygon fill="#000000" stroke="#000000" points="249.9536,-348.1243 260.4643,-346.7919 251.4167,-341.279 249.9536,-348.1243"/>
<text text-anchor="middle" x="180.3858" y="-175.6" font-family="Times,serif" font-size="14.00" fill="#000000"> continue with new current node</text>
</g>
</g>
</svg>