<?xml version="1.0" encoding="UTF-8" standalone="no"?>
<!DOCTYPE svg PUBLIC "-//W3C//DTD SVG 1.1//EN" "http://www.w3.org/Graphics/SVG/1.1/DTD/svg11.dtd">
<!-- Generated by graphviz version 2.40.1 (20161225.0304)
 -->
<!-- Title: G Pages: 1 -->
<svg width="744pt" height="616pt" viewBox="0.00 0.00 744.27 616.40" xmlns="http://www.w3.org/2000/svg" xmlns:xlink="http://www.w3.org/1999/xlink">
<g id="graph0" class="graph" transform="scale(1 1) rotate(0) translate(4 612.4)">
<title>G</title>
<polygon fill="#ffffff" stroke="transparent" points="-4,4 -4,-612.4 740.2746,-612.4 740.2746,4 -4,4"/>
<!-- begin -->
<g id="node1" class="node">
<title>begin</title>
<ellipse fill="none" stroke="#000000" cx="453.0642" cy="-590.4" rx="66.594" ry="18"/>
<text text-anchor="middle" x="453.0642" y="-586.2" font-family="Times,serif" font-size="14.00" fill="#000000">heapify(Heap)</text>
</g>
<!-- a1 -->
<g id="node2" class="node">
<title>a1</title>
<polygon fill="none" stroke="#000000" points="506.0058,-535.4 400.1226,-535.4 400.1226,-499.4 506.0058,-499.4 506.0058,-535.4"/>
<text text-anchor="middle" x="453.0642" y="-513.2" font-family="Times,serif" font-size="14.00" fill="#000000">tmp = root node</text>
</g>
<!-- begin&#45;&gt;a1 -->
<g id="edge3" class="edge">
<title>begin-&gt;a1</title>
<path fill="none" stroke="#000000" d="M453.0642,-572.3551C453.0642,-564.2828 453.0642,-554.5764 453.0642,-545.5817"/>
<polygon fill="#000000" stroke="#000000" points="456.5643,-545.4903 453.0642,-535.4904 449.5643,-545.4904 456.5643,-545.4903"/>
</g>
<!-- abortcond -->
<g id="node6" class="node">
<title>abortcond</title>
<polygon fill="none" stroke="#000000" points="453.0642,-462.4 344.7714,-444.4 453.0642,-426.4 561.357,-444.4 453.0642,-462.4"/>
<text text-anchor="middle" x="453.0642" y="-440.2" font-family="Times,serif" font-size="14.00" fill="#000000">left child empty?</text>
</g>
<!-- a1&#45;&gt;abortcond -->
<g id="edge4" class="edge">
<title>a1-&gt;abortcond</title>
<path fill="none" stroke="#000000" d="M453.0642,-499.3551C453.0642,-491.2828 453.0642,-481.5764 453.0642,-472.5817"/>
<polygon fill="#000000" stroke="#000000" points="456.5643,-472.4903 453.0642,-462.4904 449.5643,-472.4904 456.5643,-472.4903"/>
</g>
<!-- cond1 -->
<g id="node3" class="node">
<title>cond1</title>
<polygon fill="none" stroke="#000000" points="284.0642,-341.2 147.8981,-323.2 284.0642,-305.2 420.2303,-323.2 284.0642,-341.2"/>
<text text-anchor="middle" x="284.0642" y="-319" font-family="Times,serif" font-size="14.00" fill="#000000">tmp &lt; left child node?</text>
</g>
<!-- cond2 -->
<g id="node4" class="node">
<title>cond2</title>
<polygon fill="none" stroke="#000000" points="356.0642,-133.2 212.2089,-115.2 356.0642,-97.2 499.9195,-115.2 356.0642,-133.2"/>
<text text-anchor="middle" x="356.0642" y="-111" font-family="Times,serif" font-size="14.00" fill="#000000">tmp &lt; right child node?</text>
</g>
<!-- cond1&#45;&gt;cond2 -->
<g id="edge2" class="edge">
<title>cond1-&gt;cond2</title>
<path fill="none" stroke="#000000" d="M290.079,-305.8238C302.6261,-269.5768 331.6686,-185.6761 346.6893,-142.2829"/>
<polygon fill="#000000" stroke="#000000" points="350.0521,-143.2678 350.0158,-132.673 343.4372,-140.978 350.0521,-143.2678"/>
<text text-anchor="middle" x="356.2767" y="-200.2" font-family="Times,serif" font-size="14.00" fill="#000000">false</text>
</g>
<!-- a2 -->
<g id="node5" class="node">
<title>a2</title>
<polygon fill="none" stroke="#000000" points="178.1926,-133.2 -.0642,-133.2 -.0642,-97.2 178.1926,-97.2 178.1926,-133.2"/>
<text text-anchor="middle" x="89.0642" y="-111" font-family="Times,serif" font-size="14.00" fill="#000000">swap left child node and tmp</text>
</g>
<!-- cond1&#45;&gt;a2 -->
<g id="edge1" class="edge">
<title>cond1-&gt;a2</title>
<path fill="none" stroke="#000000" d="M268.7629,-306.8786C234.8834,-270.7405 153.3356,-183.7562 112.7848,-140.502"/>
<polygon fill="#000000" stroke="#000000" points="115.336,-138.1059 105.9432,-133.2043 110.2293,-142.8935 115.336,-138.1059"/>
<text text-anchor="middle" x="226.9471" y="-200.2" font-family="Times,serif" font-size="14.00" fill="#000000">true</text>
</g>
<!-- abort -->
<g id="node9" class="node">
<title>abort</title>
<polygon fill="none" stroke="#000000" points="428.2637,-41.4019 283.8647,-41.4019 283.8647,-.1981 428.2637,-.1981 428.2637,-41.4019"/>
<text text-anchor="middle" x="356.0642" y="-25" font-family="Times,serif" font-size="14.00" fill="#000000">return Heap with</text>
<text text-anchor="middle" x="356.0642" y="-8.2" font-family="Times,serif" font-size="14.00" fill="#000000">current position of tmp</text>
</g>
<!-- cond2&#45;&gt;abort -->
<g id="edge9" class="edge">
<title>cond2-&gt;abort</title>
<path fill="none" stroke="#000000" d="M356.0642,-96.9987C356.0642,-84.2373 356.0642,-66.8584 356.0642,-51.9201"/>
<polygon fill="#000000" stroke="#000000" points="359.5643,-51.5749 356.0642,-41.5749 352.5643,-51.5749 359.5643,-51.5749"/>
<text text-anchor="middle" x="369.2767" y="-63.8" font-family="Times,serif" font-size="14.00" fill="#000000">false</text>
</g>
<!-- a3 -->
<g id="node10" class="node">
<title>a3</title>
<polygon fill="none" stroke="#000000" points="711.978,-38.8 526.1504,-38.8 526.1504,-2.8 711.978,-2.8 711.978,-38.8"/>
<text text-anchor="middle" x="619.0642" y="-16.6" font-family="Times,serif" font-size="14.00" fill="#000000">swap right child node and tmp</text>
</g>
<!-- cond2&#45;&gt;a3 -->
<g id="edge10" class="edge">
<title>cond2-&gt;a3</title>
<path fill="none" stroke="#000000" d="M393.4664,-101.775C436.6326,-86.2811 508.2069,-60.5906 559.156,-42.3032"/>
<polygon fill="#000000" stroke="#000000" points="560.5071,-45.5369 568.7367,-38.8643 558.1422,-38.9485 560.5071,-45.5369"/>
<text text-anchor="middle" x="513.9471" y="-63.8" font-family="Times,serif" font-size="14.00" fill="#000000">true</text>
</g>
<!-- a2&#45;&gt;abortcond -->
<g id="edge12" class="edge">
<title>a2-&gt;abortcond</title>
<path fill="none" stroke="#000000" d="M82.2591,-133.4513C66.3152,-179.6946 32.1469,-302.8079 90.8538,-373.6 124.5302,-414.2089 264.7545,-431.8695 360.5181,-439.3019"/>
<polygon fill="#000000" stroke="#000000" points="360.2771,-442.7936 370.5114,-440.0531 360.8019,-435.8133 360.2771,-442.7936"/>
<text text-anchor="middle" x="115.1694" y="-361" font-family="Times,serif" font-size="14.00" fill="#000000">continue</text>
<text text-anchor="middle" x="115.1694" y="-344.2" font-family="Times,serif" font-size="14.00" fill="#000000">with</text>
<text text-anchor="middle" x="115.1694" y="-327.4" font-family="Times,serif" font-size="14.00" fill="#000000">new</text>
<text text-anchor="middle" x="115.1694" y="-310.6" font-family="Times,serif" font-size="14.00" fill="#000000">position</text>
<text text-anchor="middle" x="115.1694" y="-293.8" font-family="Times,serif" font-size="14.00" fill="#000000">of</text>
<text text-anchor="middle" x="115.1694" y="-277" font-family="Times,serif" font-size="14.00" fill="#000000">tmp</text>
</g>
<!-- abortcond&#45;&gt;cond1 -->
<g id="edge6" class="edge">
<title>abortcond-&gt;cond1</title>
<path fill="none" stroke="#000000" d="M432.6789,-429.7804C402.9768,-408.4793 347.6358,-368.791 313.5096,-344.3171"/>
<polygon fill="#000000" stroke="#000000" points="315.4851,-341.4268 305.3191,-338.4431 311.4056,-347.1152 315.4851,-341.4268"/>
<text text-anchor="middle" x="426.2574" y="-395.8" font-family="Times,serif" font-size="14.00" fill="#000000">not empty</text>
</g>
<!-- abortcond2 -->
<g id="node7" class="node">
<title>abortcond2</title>
<polygon fill="none" stroke="#000000" points="554.0642,-341.2 438.0818,-323.2 554.0642,-305.2 670.0466,-323.2 554.0642,-341.2"/>
<text text-anchor="middle" x="554.0642" y="-319" font-family="Times,serif" font-size="14.00" fill="#000000">right child empty?</text>
</g>
<!-- abortcond&#45;&gt;abortcond2 -->
<g id="edge5" class="edge">
<title>abortcond-&gt;abortcond2</title>
<path fill="none" stroke="#000000" d="M466.2682,-428.5552C483.4876,-407.8919 513.7782,-371.5432 533.8853,-347.4147"/>
<polygon fill="#000000" stroke="#000000" points="536.8215,-349.3584 540.5346,-339.4355 531.4439,-344.8771 536.8215,-349.3584"/>
<text text-anchor="middle" x="511.5621" y="-395.8" font-family="Times,serif" font-size="14.00" fill="#000000">emtpy</text>
</g>
<!-- abortcond2&#45;&gt;cond2 -->
<g id="edge8" class="edge">
<title>abortcond2-&gt;cond2</title>
<path fill="none" stroke="#000000" d="M538.8562,-307.224C504.2451,-270.8648 419.4441,-181.7809 378.6751,-138.9529"/>
<polygon fill="#000000" stroke="#000000" points="381.027,-136.3472 371.5971,-131.5173 375.9568,-141.1736 381.027,-136.3472"/>
<text text-anchor="middle" x="512.2574" y="-200.2" font-family="Times,serif" font-size="14.00" fill="#000000">not empty</text>
</g>
<!-- abort2 -->
<g id="node8" class="node">
<title>abort2</title>
<polygon fill="none" stroke="#000000" points="662.2637,-135.8019 517.8647,-135.8019 517.8647,-94.5981 662.2637,-94.5981 662.2637,-135.8019"/>
<text text-anchor="middle" x="590.0642" y="-119.4" font-family="Times,serif" font-size="14.00" fill="#000000">return Heap with</text>
<text text-anchor="middle" x="590.0642" y="-102.6" font-family="Times,serif" font-size="14.00" fill="#000000">current position of tmp</text>
</g>
<!-- abortcond2&#45;&gt;abort2 -->
<g id="edge7" class="edge">
<title>abortcond2-&gt;abort2</title>
<path fill="none" stroke="#000000" d="M557.1335,-305.466C563.2727,-269.9951 577.1293,-189.9347 584.766,-145.8117"/>
<polygon fill="#000000" stroke="#000000" points="588.2188,-146.3846 586.4756,-135.9342 581.3214,-145.1908 588.2188,-146.3846"/>
<text text-anchor="middle" x="600.5621" y="-200.2" font-family="Times,serif" font-size="14.00" fill="#000000">empty</text>
</g>
<!-- a3&#45;&gt;abortcond -->
<g id="edge11" class="edge">
<title>a3-&gt;abortcond</title>
<path fill="none" stroke="#000000" d="M636.5334,-39.0829C648.6542,-53.0359 663.8662,-73.3822 671.0642,-94.4 689.4806,-148.1753 696.6131,-349.7124 679.0642,-373.6 659.5905,-400.1076 576.1832,-421.1361 516.3628,-433.1804"/>
<polygon fill="#000000" stroke="#000000" points="515.3673,-429.8093 506.2345,-435.1799 516.7231,-436.6768 515.3673,-429.8093"/>
<text text-anchor="middle" x="712.1694" y="-242.2" font-family="Times,serif" font-size="14.00" fill="#000000">continue</text>
<text text-anchor="middle" x="712.1694" y="-225.4" font-family="Times,serif" font-size="14.00" fill="#000000">with</text>
<text text-anchor="middle" x="712.1694" y="-208.6" font-family="Times,serif" font-size="14.00" fill="#000000">new</text>
<text text-anchor="middle" x="712.1694" y="-191.8" font-family="Times,serif" font-size="14.00" fill="#000000">position</text>
<text text-anchor="middle" x="712.1694" y="-175" font-family="Times,serif" font-size="14.00" fill="#000000">of</text>
<text text-anchor="middle" x="712.1694" y="-158.2" font-family="Times,serif" font-size="14.00" fill="#000000">tmp</text>
</g>
</g>
</svg>