<?xml version="1.0" encoding="UTF-8" standalone="no"?>
<!DOCTYPE svg PUBLIC "-//W3C//DTD SVG 1.1//EN" "http://www.w3.org/Graphics/SVG/1.1/DTD/svg11.dtd">
<!-- Generated by graphviz version 2.40.1 (20161225.0304)
 -->
<!-- Title: G Pages: 1 -->
<svg width="1373pt" height="791pt" viewBox="0.00 0.00 1372.97 790.80" xmlns="http://www.w3.org/2000/svg" xmlns:xlink="http://www.w3.org/1999/xlink">
<g id="graph0" class="graph" transform="scale(1 1) rotate(0) translate(4 786.8)">
<title>G</title>
<polygon fill="#ffffff" stroke="transparent" points="-4,4 -4,-786.8 1368.9724,-786.8 1368.9724,4 -4,4"/>
<!-- begin -->
<g id="node1" class="node">
<title>begin</title>
<ellipse fill="none" stroke="#000000" cx="402.5765" cy="-764.8" rx="66.594" ry="18"/>
<text text-anchor="middle" x="402.5765" y="-760.6" font-family="Times,serif" font-size="14.00" fill="#000000">heapify(Heap)</text>
</g>
<!-- a1 -->
<g id="node2" class="node">
<title>a1</title>
<polygon fill="none" stroke="#000000" points="455.5181,-709.8 349.6349,-709.8 349.6349,-673.8 455.5181,-673.8 455.5181,-709.8"/>
<text text-anchor="middle" x="402.5765" y="-687.6" font-family="Times,serif" font-size="14.00" fill="#000000">tmp = root node</text>
</g>
<!-- begin&#45;&gt;a1 -->
<g id="edge1" class="edge">
<title>begin-&gt;a1</title>
<path fill="none" stroke="#000000" d="M402.5765,-746.7551C402.5765,-738.6828 402.5765,-728.9764 402.5765,-719.9817"/>
<polygon fill="#000000" stroke="#000000" points="406.0766,-719.8903 402.5765,-709.8904 399.0766,-719.8904 406.0766,-719.8903"/>
</g>
<!-- a2 -->
<g id="node3" class="node">
<title>a2</title>
<polygon fill="none" stroke="#000000" points="402.5765,-636.8 195.8364,-618.8 402.5765,-600.8 609.3166,-618.8 402.5765,-636.8"/>
<text text-anchor="middle" x="402.5765" y="-614.6" font-family="Times,serif" font-size="14.00" fill="#000000">&lt;N1&gt; both children of tmp empty?</text>
</g>
<!-- a1&#45;&gt;a2 -->
<g id="edge2" class="edge">
<title>a1-&gt;a2</title>
<path fill="none" stroke="#000000" d="M402.5765,-673.7551C402.5765,-665.6828 402.5765,-655.9764 402.5765,-646.9817"/>
<polygon fill="#000000" stroke="#000000" points="406.0766,-646.8903 402.5765,-636.8904 399.0766,-646.8904 406.0766,-646.8903"/>
</g>
<!-- a3 -->
<g id="node4" class="node">
<title>a3</title>
<polygon fill="none" stroke="#000000" points="267.2295,-548 -.0765,-548 -.0765,-512 267.2295,-512 267.2295,-548"/>
<text text-anchor="middle" x="133.5765" y="-525.8" font-family="Times,serif" font-size="14.00" fill="#000000">return max-heap with tmp at current position</text>
</g>
<!-- a2&#45;&gt;a3 -->
<g id="edge3" class="edge">
<title>a2-&gt;a3</title>
<path fill="none" stroke="#000000" d="M343.313,-605.9492C317.4192,-599.7988 286.8508,-591.8084 259.8107,-582.8 233.5644,-574.0561 205.0747,-562.3412 181.8139,-552.1678"/>
<polygon fill="#000000" stroke="#000000" points="183.0785,-548.9001 172.5168,-548.0623 180.2508,-555.3036 183.0785,-548.9001"/>
<text text-anchor="middle" x="271.4594" y="-570.2" font-family="Times,serif" font-size="14.00" fill="#000000">true</text>
</g>
<!-- a4 -->
<g id="node5" class="node">
<title>a4</title>
<polygon fill="none" stroke="#000000" points="620.5765,-548 441.6964,-530 620.5765,-512 799.4566,-530 620.5765,-548"/>
<text text-anchor="middle" x="620.5765" y="-525.8" font-family="Times,serif" font-size="14.00" fill="#000000">&lt;N2&gt; only right child empty?</text>
</g>
<!-- a2&#45;&gt;a4 -->
<g id="edge4" class="edge">
<title>a2-&gt;a4</title>
<path fill="none" stroke="#000000" d="M439.0648,-603.9369C476.6563,-588.6244 535.3063,-564.7339 575.7101,-548.2759"/>
<polygon fill="#000000" stroke="#000000" points="577.1146,-551.483 585.0554,-544.4691 574.4739,-545.0002 577.1146,-551.483"/>
<text text-anchor="middle" x="544.789" y="-570.2" font-family="Times,serif" font-size="14.00" fill="#000000">false</text>
</g>
<!-- a5 -->
<g id="node6" class="node">
<title>a5</title>
<polygon fill="none" stroke="#000000" points="620.5765,-334.8 430.2606,-316.8 620.5765,-298.8 810.8924,-316.8 620.5765,-334.8"/>
<text text-anchor="middle" x="620.5765" y="-312.6" font-family="Times,serif" font-size="14.00" fill="#000000">&lt;N3&gt; tmp &gt;= left child element</text>
</g>
<!-- a4&#45;&gt;a5 -->
<g id="edge5" class="edge">
<title>a4-&gt;a5</title>
<path fill="none" stroke="#000000" d="M620.5765,-511.8227C620.5765,-474.6114 620.5765,-389.5247 620.5765,-345.0536"/>
<polygon fill="#000000" stroke="#000000" points="624.0766,-344.9313 620.5765,-334.9313 617.0766,-344.9313 624.0766,-344.9313"/>
<text text-anchor="middle" x="631.4594" y="-439.4" font-family="Times,serif" font-size="14.00" fill="#000000">true</text>
</g>
<!-- c1 -->
<g id="node9" class="node">
<title>c1</title>
<polygon fill="none" stroke="#000000" points="1023.5765,-375.1002 828.7085,-316.8 1023.5765,-258.4998 1218.4445,-316.8 1023.5765,-375.1002"/>
<text text-anchor="middle" x="1023.5765" y="-329.4" font-family="Times,serif" font-size="14.00" fill="#000000">&lt;N5&gt; tmp &gt;= left child element</text>
<text text-anchor="middle" x="1023.5765" y="-312.6" font-family="Times,serif" font-size="14.00" fill="#000000">AND</text>
<text text-anchor="middle" x="1023.5765" y="-295.8" font-family="Times,serif" font-size="14.00" fill="#000000">tmp &gt;= right child element?</text>
</g>
<!-- a4&#45;&gt;c1 -->
<g id="edge9" class="edge">
<title>a4-&gt;c1</title>
<path fill="none" stroke="#000000" d="M649.2362,-514.8381C709.9717,-482.7071 853.4774,-406.7879 944.1204,-358.8348"/>
<polygon fill="#000000" stroke="#000000" points="945.7922,-361.9101 952.9947,-354.14 942.5187,-355.7226 945.7922,-361.9101"/>
<text text-anchor="middle" x="882.789" y="-439.4" font-family="Times,serif" font-size="14.00" fill="#000000">false</text>
</g>
<!-- b1 -->
<g id="node7" class="node">
<title>b1</title>
<polygon fill="none" stroke="#000000" points="940.1256,-165.2 637.0274,-165.2 637.0274,-129.2 940.1256,-129.2 940.1256,-165.2"/>
<text text-anchor="middle" x="788.5765" y="-143" font-family="Times,serif" font-size="14.00" fill="#000000">&lt;N6&gt; return max-heap with tmp at current position</text>
</g>
<!-- a5&#45;&gt;b1 -->
<g id="edge6" class="edge">
<title>a5-&gt;b1</title>
<path fill="none" stroke="#000000" d="M636.9909,-300.2292C666.3898,-270.5504 728.2122,-208.1392 763.1415,-172.8772"/>
<polygon fill="#000000" stroke="#000000" points="766.0286,-174.9361 770.5795,-165.3684 761.0554,-170.0098 766.0286,-174.9361"/>
<text text-anchor="middle" x="720.4594" y="-227.8" font-family="Times,serif" font-size="14.00" fill="#000000">true</text>
</g>
<!-- b2 -->
<g id="node8" class="node">
<title>b2</title>
<polygon fill="none" stroke="#000000" points="619.479,-165.2 323.674,-165.2 323.674,-129.2 619.479,-129.2 619.479,-165.2"/>
<text text-anchor="middle" x="471.5765" y="-143" font-family="Times,serif" font-size="14.00" fill="#000000">&lt;N4&gt; swap position of tmp and left child element</text>
</g>
<!-- a5&#45;&gt;b2 -->
<g id="edge7" class="edge">
<title>a5-&gt;b2</title>
<path fill="none" stroke="#000000" d="M605.7451,-299.9181C579.6452,-270.2098 525.3486,-208.4063 494.4266,-173.2093"/>
<polygon fill="#000000" stroke="#000000" points="496.6965,-170.4899 487.4669,-165.2874 491.4377,-175.11 496.6965,-170.4899"/>
<text text-anchor="middle" x="562.789" y="-227.8" font-family="Times,serif" font-size="14.00" fill="#000000">false</text>
</g>
<!-- b2&#45;&gt;a2 -->
<g id="edge8" class="edge">
<title>b2-&gt;a2</title>
<path fill="none" stroke="#000000" d="M460.8811,-165.3339C448.8644,-186.7488 429.947,-223.838 421.5765,-258.4 392.2899,-379.3253 397.0058,-529.501 400.595,-590.788"/>
<polygon fill="#000000" stroke="#000000" points="397.1061,-591.0776 401.2217,-600.8404 404.0925,-590.6419 397.1061,-591.0776"/>
<text text-anchor="middle" x="426.6817" y="-481.4" font-family="Times,serif" font-size="14.00" fill="#000000">continue</text>
<text text-anchor="middle" x="426.6817" y="-464.6" font-family="Times,serif" font-size="14.00" fill="#000000">with</text>
<text text-anchor="middle" x="426.6817" y="-447.8" font-family="Times,serif" font-size="14.00" fill="#000000">new</text>
<text text-anchor="middle" x="426.6817" y="-431" font-family="Times,serif" font-size="14.00" fill="#000000">position</text>
<text text-anchor="middle" x="426.6817" y="-414.2" font-family="Times,serif" font-size="14.00" fill="#000000">of</text>
<text text-anchor="middle" x="426.6817" y="-397.4" font-family="Times,serif" font-size="14.00" fill="#000000">tmp</text>
</g>
<!-- c1&#45;&gt;b1 -->
<g id="edge10" class="edge">
<title>c1-&gt;b1</title>
<path fill="none" stroke="#000000" d="M966.3895,-275.528C921.2355,-242.9403 859.7779,-198.5862 822.2096,-171.4731"/>
<polygon fill="#000000" stroke="#000000" points="823.8126,-168.3137 813.6556,-165.2996 819.7161,-173.9899 823.8126,-168.3137"/>
<text text-anchor="middle" x="923.4594" y="-227.8" font-family="Times,serif" font-size="14.00" fill="#000000">true</text>
</g>
<!-- c3 -->
<g id="node10" class="node">
<title>c3</title>
<polygon fill="none" stroke="#000000" points="1108.5765,-205.5002 958.3492,-147.2 1108.5765,-88.8998 1258.8038,-147.2 1108.5765,-205.5002"/>
<text text-anchor="middle" x="1108.5765" y="-159.8" font-family="Times,serif" font-size="14.00" fill="#000000">&lt;N7&gt; left child element</text>
<text text-anchor="middle" x="1108.5765" y="-143" font-family="Times,serif" font-size="14.00" fill="#000000">&gt;=</text>
<text text-anchor="middle" x="1108.5765" y="-126.2" font-family="Times,serif" font-size="14.00" fill="#000000">right child element?</text>
</g>
<!-- c1&#45;&gt;c3 -->
<g id="edge11" class="edge">
<title>c1-&gt;c3</title>
<path fill="none" stroke="#000000" d="M1049.0793,-265.9144C1058.6622,-246.7938 1069.6254,-224.9189 1079.5085,-205.1992"/>
<polygon fill="#000000" stroke="#000000" points="1082.7614,-206.5201 1084.113,-196.0118 1076.5034,-203.3837 1082.7614,-206.5201"/>
<text text-anchor="middle" x="1081.789" y="-227.8" font-family="Times,serif" font-size="14.00" fill="#000000">false</text>
</g>
<!-- c4 -->
<g id="node11" class="node">
<title>c4</title>
<polygon fill="none" stroke="#000000" points="725.0829,-36 466.0701,-36 466.0701,0 725.0829,0 725.0829,-36"/>
<text text-anchor="middle" x="595.5765" y="-13.8" font-family="Times,serif" font-size="14.00" fill="#000000">swap position of tmp and left child element</text>
</g>
<!-- c3&#45;&gt;c4 -->
<g id="edge12" class="edge">
<title>c3-&gt;c4</title>
<path fill="none" stroke="#000000" d="M1034.9385,-117.4579C1008.3343,-107.433 977.8812,-96.7769 949.5765,-88.8 873.8231,-67.451 787.2101,-50.011 718.6186,-37.7818"/>
<polygon fill="#000000" stroke="#000000" points="719.0896,-34.3109 708.6328,-36.0155 717.8702,-41.2039 719.0896,-34.3109"/>
<text text-anchor="middle" x="883.4594" y="-58.2" font-family="Times,serif" font-size="14.00" fill="#000000">true</text>
</g>
<!-- c5 -->
<g id="node12" class="node">
<title>c5</title>
<polygon fill="none" stroke="#000000" points="1364.8684,-36 1098.2846,-36 1098.2846,0 1364.8684,0 1364.8684,-36"/>
<text text-anchor="middle" x="1231.5765" y="-13.8" font-family="Times,serif" font-size="14.00" fill="#000000">swap position of tmp and right child element</text>
</g>
<!-- c3&#45;&gt;c5 -->
<g id="edge13" class="edge">
<title>c3-&gt;c5</title>
<path fill="none" stroke="#000000" d="M1149.1922,-104.537C1168.3675,-84.3951 1190.6165,-61.0246 1207.1561,-43.6513"/>
<polygon fill="#000000" stroke="#000000" points="1209.9618,-45.7802 1214.3221,-36.1242 1204.8919,-40.9536 1209.9618,-45.7802"/>
<text text-anchor="middle" x="1207.789" y="-58.2" font-family="Times,serif" font-size="14.00" fill="#000000">false</text>
</g>
<!-- c4&#45;&gt;a2 -->
<g id="edge14" class="edge">
<title>c4-&gt;a2</title>
<path fill="none" stroke="#000000" d="M477.2359,-36.0633C411.6703,-48.2891 338.653,-66.3012 314.5765,-88.8 294.6339,-107.4358 295.5765,-119.9053 295.5765,-147.2 295.5765,-530 295.5765,-530 295.5765,-530 295.5765,-562.5654 325.2884,-585.4679 353.3985,-599.8486"/>
<polygon fill="#000000" stroke="#000000" points="351.9033,-603.0132 362.4292,-604.2196 354.953,-596.7125 351.9033,-603.0132"/>
<text text-anchor="middle" x="319.6817" y="-354.6" font-family="Times,serif" font-size="14.00" fill="#000000">continue</text>
<text text-anchor="middle" x="319.6817" y="-337.8" font-family="Times,serif" font-size="14.00" fill="#000000">with</text>
<text text-anchor="middle" x="319.6817" y="-321" font-family="Times,serif" font-size="14.00" fill="#000000">new</text>
<text text-anchor="middle" x="319.6817" y="-304.2" font-family="Times,serif" font-size="14.00" fill="#000000">position</text>
<text text-anchor="middle" x="319.6817" y="-287.4" font-family="Times,serif" font-size="14.00" fill="#000000">of</text>
<text text-anchor="middle" x="319.6817" y="-270.6" font-family="Times,serif" font-size="14.00" fill="#000000">tmp</text>
</g>
<!-- c5&#45;&gt;a2 -->
<g id="edge15" class="edge">
<title>c5-&gt;a2</title>
<path fill="none" stroke="#000000" d="M1244.8905,-36.2193C1261.1679,-60.3385 1286.5765,-104.7816 1286.5765,-147.2 1286.5765,-530 1286.5765,-530 1286.5765,-530 1286.5765,-566.8454 793.9718,-598.1648 544.2099,-611.6765"/>
<polygon fill="#000000" stroke="#000000" points="543.763,-608.1954 533.9657,-612.2281 544.1394,-615.1853 543.763,-608.1954"/>
<text text-anchor="middle" x="1310.6817" y="-354.6" font-family="Times,serif" font-size="14.00" fill="#000000">continue</text>
<text text-anchor="middle" x="1310.6817" y="-337.8" font-family="Times,serif" font-size="14.00" fill="#000000">with</text>
<text text-anchor="middle" x="1310.6817" y="-321" font-family="Times,serif" font-size="14.00" fill="#000000">new</text>
<text text-anchor="middle" x="1310.6817" y="-304.2" font-family="Times,serif" font-size="14.00" fill="#000000">position</text>
<text text-anchor="middle" x="1310.6817" y="-287.4" font-family="Times,serif" font-size="14.00" fill="#000000">of</text>
<text text-anchor="middle" x="1310.6817" y="-270.6" font-family="Times,serif" font-size="14.00" fill="#000000">tmp</text>
</g>
</g>
</svg>