<?xml version="1.0" encoding="UTF-8" standalone="no"?>
<!DOCTYPE svg PUBLIC "-//W3C//DTD SVG 1.1//EN" "http://www.w3.org/Graphics/SVG/1.1/DTD/svg11.dtd">
<!-- Generated by graphviz version 2.40.1 (20161225.0304)
 -->
<!-- Title: G Pages: 1 -->
<svg width="1548pt" height="791pt" viewBox="0.00 0.00 1547.97 790.80" xmlns="http://www.w3.org/2000/svg" xmlns:xlink="http://www.w3.org/1999/xlink">
<g id="graph0" class="graph" transform="scale(1 1) rotate(0) translate(4 786.8)">
<title>G</title>
<polygon fill="#ffffff" stroke="transparent" points="-4,4 -4,-786.8 1543.9724,-786.8 1543.9724,4 -4,4"/>
<!-- begin -->
<g id="node1" class="node">
<title>begin</title>
<ellipse fill="none" stroke="#000000" cx="453.5765" cy="-764.8" rx="66.594" ry="18"/>
<text text-anchor="middle" x="453.5765" y="-760.6" font-family="Times,serif" font-size="14.00" fill="#000000">heapify(Heap)</text>
</g>
<!-- a1 -->
<g id="node2" class="node">
<title>a1</title>
<polygon fill="none" stroke="#000000" points="506.5181,-709.8 400.6349,-709.8 400.6349,-673.8 506.5181,-673.8 506.5181,-709.8"/>
<text text-anchor="middle" x="453.5765" y="-687.6" font-family="Times,serif" font-size="14.00" fill="#000000">tmp = root node</text>
</g>
<!-- begin&#45;&gt;a1 -->
<g id="edge1" class="edge">
<title>begin-&gt;a1</title>
<path fill="none" stroke="#000000" d="M453.5765,-746.7551C453.5765,-738.6828 453.5765,-728.9764 453.5765,-719.9817"/>
<polygon fill="#000000" stroke="#000000" points="457.0766,-719.8903 453.5765,-709.8904 450.0766,-719.8904 457.0766,-719.8903"/>
</g>
<!-- a2 -->
<g id="node3" class="node">
<title>a2</title>
<polygon fill="none" stroke="#000000" points="453.5765,-636.8 282.3445,-618.8 453.5765,-600.8 624.8085,-618.8 453.5765,-636.8"/>
<text text-anchor="middle" x="453.5765" y="-614.6" font-family="Times,serif" font-size="14.00" fill="#000000">both children of tmp empty?</text>
</g>
<!-- a1&#45;&gt;a2 -->
<g id="edge2" class="edge">
<title>a1-&gt;a2</title>
<path fill="none" stroke="#000000" d="M453.5765,-673.7551C453.5765,-665.6828 453.5765,-655.9764 453.5765,-646.9817"/>
<polygon fill="#000000" stroke="#000000" points="457.0766,-646.8903 453.5765,-636.8904 450.0766,-646.8904 457.0766,-646.8903"/>
</g>
<!-- a3 -->
<g id="node4" class="node">
<title>a3</title>
<polygon fill="none" stroke="#000000" points="267.2295,-548 -.0765,-548 -.0765,-512 267.2295,-512 267.2295,-548"/>
<text text-anchor="middle" x="133.5765" y="-525.8" font-family="Times,serif" font-size="14.00" fill="#000000">return max-heap with tmp at current position</text>
</g>
<!-- a2&#45;&gt;a3 -->
<g id="edge3" class="edge">
<title>a2-&gt;a3</title>
<path fill="none" stroke="#000000" d="M378.1641,-608.6074C341.9422,-602.7476 298.1722,-594.2445 259.8107,-582.8 232.8006,-574.742 203.7106,-562.8111 180.271,-552.3284"/>
<polygon fill="#000000" stroke="#000000" points="181.4776,-549.0326 170.9246,-548.0919 178.5876,-555.4082 181.4776,-549.0326"/>
<text text-anchor="middle" x="271.4594" y="-570.2" font-family="Times,serif" font-size="14.00" fill="#000000">true</text>
</g>
<!-- a4 -->
<g id="node5" class="node">
<title>a4</title>
<polygon fill="none" stroke="#000000" points="655.5765,-548 512.2045,-530 655.5765,-512 798.9485,-530 655.5765,-548"/>
<text text-anchor="middle" x="655.5765" y="-525.8" font-family="Times,serif" font-size="14.00" fill="#000000">only right child empty?</text>
</g>
<!-- a2&#45;&gt;a4 -->
<g id="edge4" class="edge">
<title>a2-&gt;a4</title>
<path fill="none" stroke="#000000" d="M486.9327,-604.1365C521.8492,-588.787 576.7275,-564.6623 614.3387,-548.1283"/>
<polygon fill="#000000" stroke="#000000" points="615.7603,-551.3267 623.5062,-544.0982 612.9432,-544.9185 615.7603,-551.3267"/>
<text text-anchor="middle" x="586.789" y="-570.2" font-family="Times,serif" font-size="14.00" fill="#000000">false</text>
</g>
<!-- a5 -->
<g id="node6" class="node">
<title>a5</title>
<polygon fill="none" stroke="#000000" points="655.5765,-334.8 500.7687,-316.8 655.5765,-298.8 810.3843,-316.8 655.5765,-334.8"/>
<text text-anchor="middle" x="655.5765" y="-312.6" font-family="Times,serif" font-size="14.00" fill="#000000">tmp &gt;= left child element</text>
</g>
<!-- a4&#45;&gt;a5 -->
<g id="edge5" class="edge">
<title>a4-&gt;a5</title>
<path fill="none" stroke="#000000" d="M655.5765,-511.8227C655.5765,-474.6114 655.5765,-389.5247 655.5765,-345.0536"/>
<polygon fill="#000000" stroke="#000000" points="659.0766,-344.9313 655.5765,-334.9313 652.0766,-344.9313 659.0766,-344.9313"/>
<text text-anchor="middle" x="666.4594" y="-439.4" font-family="Times,serif" font-size="14.00" fill="#000000">true</text>
</g>
<!-- c1 -->
<g id="node9" class="node">
<title>c1</title>
<polygon fill="none" stroke="#000000" points="1019.5765,-375.1002 847.0001,-316.8 1019.5765,-258.4998 1192.1529,-316.8 1019.5765,-375.1002"/>
<text text-anchor="middle" x="1019.5765" y="-329.4" font-family="Times,serif" font-size="14.00" fill="#000000">tmp &gt;= left child element</text>
<text text-anchor="middle" x="1019.5765" y="-312.6" font-family="Times,serif" font-size="14.00" fill="#000000">AND</text>
<text text-anchor="middle" x="1019.5765" y="-295.8" font-family="Times,serif" font-size="14.00" fill="#000000">tmp &gt;= right child element?</text>
</g>
<!-- a4&#45;&gt;c1 -->
<g id="edge9" class="edge">
<title>a4-&gt;c1</title>
<path fill="none" stroke="#000000" d="M681.1723,-515.0082C735.8196,-483.0004 865.5934,-406.9901 947.6198,-358.946"/>
<polygon fill="#000000" stroke="#000000" points="949.5303,-361.8833 956.3902,-353.8091 945.9924,-355.8431 949.5303,-361.8833"/>
<text text-anchor="middle" x="894.789" y="-439.4" font-family="Times,serif" font-size="14.00" fill="#000000">false</text>
</g>
<!-- b1 -->
<g id="node7" class="node">
<title>b1</title>
<polygon fill="none" stroke="#000000" points="868.2295,-165.2 600.9235,-165.2 600.9235,-129.2 868.2295,-129.2 868.2295,-165.2"/>
<text text-anchor="middle" x="734.5765" y="-143" font-family="Times,serif" font-size="14.00" fill="#000000">return max-heap with tmp at current position</text>
</g>
<!-- a5&#45;&gt;b1 -->
<g id="edge6" class="edge">
<title>a5-&gt;b1</title>
<path fill="none" stroke="#000000" d="M663.5862,-299.6045C677.3189,-270.1226 705.4619,-209.7042 721.8883,-174.4394"/>
<polygon fill="#000000" stroke="#000000" points="725.1393,-175.7492 726.189,-165.2065 718.7939,-172.7935 725.1393,-175.7492"/>
<text text-anchor="middle" x="708.4594" y="-227.8" font-family="Times,serif" font-size="14.00" fill="#000000">true</text>
</g>
<!-- b2 -->
<g id="node8" class="node">
<title>b2</title>
<polygon fill="none" stroke="#000000" points="583.0829,-165.2 324.0701,-165.2 324.0701,-129.2 583.0829,-129.2 583.0829,-165.2"/>
<text text-anchor="middle" x="453.5765" y="-143" font-family="Times,serif" font-size="14.00" fill="#000000">swap position of tmp and left child element</text>
</g>
<!-- a5&#45;&gt;b2 -->
<g id="edge7" class="edge">
<title>a5-&gt;b2</title>
<path fill="none" stroke="#000000" d="M636.5728,-300.8444C601.1425,-271.097 524.7919,-206.9927 482.7743,-171.7146"/>
<polygon fill="#000000" stroke="#000000" points="485.0075,-169.0195 475.0983,-165.2698 480.5063,-174.3805 485.0075,-169.0195"/>
<text text-anchor="middle" x="574.789" y="-227.8" font-family="Times,serif" font-size="14.00" fill="#000000">false</text>
</g>
<!-- b2&#45;&gt;a2 -->
<g id="edge8" class="edge">
<title>b2-&gt;a2</title>
<path fill="none" stroke="#000000" d="M453.5765,-165.3441C453.5765,-237.3148 453.5765,-503.0257 453.5765,-590.6004"/>
<polygon fill="#000000" stroke="#000000" points="450.0766,-590.6017 453.5765,-600.6017 457.0766,-590.6017 450.0766,-590.6017"/>
<text text-anchor="middle" x="477.6817" y="-481.4" font-family="Times,serif" font-size="14.00" fill="#000000">continue</text>
<text text-anchor="middle" x="477.6817" y="-464.6" font-family="Times,serif" font-size="14.00" fill="#000000">with</text>
<text text-anchor="middle" x="477.6817" y="-447.8" font-family="Times,serif" font-size="14.00" fill="#000000">new</text>
<text text-anchor="middle" x="477.6817" y="-431" font-family="Times,serif" font-size="14.00" fill="#000000">position</text>
<text text-anchor="middle" x="477.6817" y="-414.2" font-family="Times,serif" font-size="14.00" fill="#000000">of</text>
<text text-anchor="middle" x="477.6817" y="-397.4" font-family="Times,serif" font-size="14.00" fill="#000000">tmp</text>
</g>
<!-- c2 -->
<g id="node10" class="node">
<title>c2</title>
<polygon fill="none" stroke="#000000" points="1153.2295,-165.2 885.9235,-165.2 885.9235,-129.2 1153.2295,-129.2 1153.2295,-165.2"/>
<text text-anchor="middle" x="1019.5765" y="-143" font-family="Times,serif" font-size="14.00" fill="#000000">return max-heap with tmp at current position</text>
</g>
<!-- c1&#45;&gt;c2 -->
<g id="edge10" class="edge">
<title>c1-&gt;c2</title>
<path fill="none" stroke="#000000" d="M1019.5765,-258.4333C1019.5765,-230.4362 1019.5765,-198.168 1019.5765,-175.6215"/>
<polygon fill="#000000" stroke="#000000" points="1023.0766,-175.3954 1019.5765,-165.3954 1016.0766,-175.3955 1023.0766,-175.3954"/>
<text text-anchor="middle" x="1030.4594" y="-227.8" font-family="Times,serif" font-size="14.00" fill="#000000">true</text>
</g>
<!-- c3 -->
<g id="node11" class="node">
<title>c3</title>
<polygon fill="none" stroke="#000000" points="1299.5765,-205.5002 1171.6409,-147.2 1299.5765,-88.8998 1427.5121,-147.2 1299.5765,-205.5002"/>
<text text-anchor="middle" x="1299.5765" y="-159.8" font-family="Times,serif" font-size="14.00" fill="#000000">left child element</text>
<text text-anchor="middle" x="1299.5765" y="-143" font-family="Times,serif" font-size="14.00" fill="#000000">&gt;=</text>
<text text-anchor="middle" x="1299.5765" y="-126.2" font-family="Times,serif" font-size="14.00" fill="#000000">right child element?</text>
</g>
<!-- c1&#45;&gt;c3 -->
<g id="edge11" class="edge">
<title>c1-&gt;c3</title>
<path fill="none" stroke="#000000" d="M1081.3703,-279.3706C1127.2136,-251.6027 1189.5293,-213.8572 1235.8312,-185.8114"/>
<polygon fill="#000000" stroke="#000000" points="1237.8353,-188.6896 1244.5753,-180.515 1234.2087,-182.7023 1237.8353,-188.6896"/>
<text text-anchor="middle" x="1181.789" y="-227.8" font-family="Times,serif" font-size="14.00" fill="#000000">false</text>
</g>
<!-- c4 -->
<g id="node12" class="node">
<title>c4</title>
<polygon fill="none" stroke="#000000" points="816.0829,-36 557.0701,-36 557.0701,0 816.0829,0 816.0829,-36"/>
<text text-anchor="middle" x="686.5765" y="-13.8" font-family="Times,serif" font-size="14.00" fill="#000000">swap position of tmp and left child element</text>
</g>
<!-- c3&#45;&gt;c4 -->
<g id="edge12" class="edge">
<title>c3-&gt;c4</title>
<path fill="none" stroke="#000000" d="M1237.7041,-116.8569C1214.5966,-106.5914 1187.8316,-95.934 1162.5765,-88.8 1051.7259,-57.4872 922.2129,-39.3667 826.2908,-29.3111"/>
<polygon fill="#000000" stroke="#000000" points="826.5419,-25.8185 816.2355,-28.2736 825.8234,-32.7815 826.5419,-25.8185"/>
<text text-anchor="middle" x="1097.4594" y="-58.2" font-family="Times,serif" font-size="14.00" fill="#000000">true</text>
</g>
<!-- c5 -->
<g id="node13" class="node">
<title>c5</title>
<polygon fill="none" stroke="#000000" points="1539.8684,-36 1273.2846,-36 1273.2846,0 1539.8684,0 1539.8684,-36"/>
<text text-anchor="middle" x="1406.5765" y="-13.8" font-family="Times,serif" font-size="14.00" fill="#000000">swap position of tmp and right child element</text>
</g>
<!-- c3&#45;&gt;c5 -->
<g id="edge13" class="edge">
<title>c3-&gt;c5</title>
<path fill="none" stroke="#000000" d="M1334.9088,-104.537C1351.4395,-84.5766 1370.5961,-61.4455 1384.9427,-44.1223"/>
<polygon fill="#000000" stroke="#000000" points="1387.8838,-46.0584 1391.5665,-36.1242 1382.4925,-41.5935 1387.8838,-46.0584"/>
<text text-anchor="middle" x="1388.789" y="-58.2" font-family="Times,serif" font-size="14.00" fill="#000000">false</text>
</g>
<!-- c4&#45;&gt;a2 -->
<g id="edge14" class="edge">
<title>c4-&gt;a2</title>
<path fill="none" stroke="#000000" d="M556.6262,-28.7247C464.1461,-38.8926 350.2187,-57.4027 314.5765,-88.8 294.0952,-106.8421 295.5765,-119.9053 295.5765,-147.2 295.5765,-530 295.5765,-530 295.5765,-530 295.5765,-570.8422 336.1939,-593.0965 376.2408,-605.1126"/>
<polygon fill="#000000" stroke="#000000" points="375.5383,-608.5505 386.112,-607.8807 377.4285,-601.8105 375.5383,-608.5505"/>
<text text-anchor="middle" x="319.6817" y="-354.6" font-family="Times,serif" font-size="14.00" fill="#000000">continue</text>
<text text-anchor="middle" x="319.6817" y="-337.8" font-family="Times,serif" font-size="14.00" fill="#000000">with</text>
<text text-anchor="middle" x="319.6817" y="-321" font-family="Times,serif" font-size="14.00" fill="#000000">new</text>
<text text-anchor="middle" x="319.6817" y="-304.2" font-family="Times,serif" font-size="14.00" fill="#000000">position</text>
<text text-anchor="middle" x="319.6817" y="-287.4" font-family="Times,serif" font-size="14.00" fill="#000000">of</text>
<text text-anchor="middle" x="319.6817" y="-270.6" font-family="Times,serif" font-size="14.00" fill="#000000">tmp</text>
</g>
<!-- c5&#45;&gt;a2 -->
<g id="edge15" class="edge">
<title>c5-&gt;a2</title>
<path fill="none" stroke="#000000" d="M1418.1888,-36.0099C1432.6788,-60.2582 1455.5765,-105.2183 1455.5765,-147.2 1455.5765,-530 1455.5765,-530 1455.5765,-530 1455.5765,-572.9519 863.6827,-602.3353 589.7284,-613.6348"/>
<polygon fill="#000000" stroke="#000000" points="589.5674,-610.1384 579.7193,-614.0455 589.8544,-617.1325 589.5674,-610.1384"/>
<text text-anchor="middle" x="1479.6817" y="-354.6" font-family="Times,serif" font-size="14.00" fill="#000000">continue</text>
<text text-anchor="middle" x="1479.6817" y="-337.8" font-family="Times,serif" font-size="14.00" fill="#000000">with</text>
<text text-anchor="middle" x="1479.6817" y="-321" font-family="Times,serif" font-size="14.00" fill="#000000">new</text>
<text text-anchor="middle" x="1479.6817" y="-304.2" font-family="Times,serif" font-size="14.00" fill="#000000">position</text>
<text text-anchor="middle" x="1479.6817" y="-287.4" font-family="Times,serif" font-size="14.00" fill="#000000">of</text>
<text text-anchor="middle" x="1479.6817" y="-270.6" font-family="Times,serif" font-size="14.00" fill="#000000">tmp</text>
</g>
</g>
</svg>