<?xml version="1.0" encoding="UTF-8" standalone="no"?>
<!DOCTYPE svg PUBLIC "-//W3C//DTD SVG 1.1//EN" "http://www.w3.org/Graphics/SVG/1.1/DTD/svg11.dtd">
<!-- Generated by graphviz version 2.40.1 (20161225.0304)
 -->
<!-- Title: G Pages: 1 -->
<svg width="761pt" height="571pt" viewBox="0.00 0.00 761.45 570.60" xmlns="http://www.w3.org/2000/svg" xmlns:xlink="http://www.w3.org/1999/xlink">
<g id="graph0" class="graph" transform="scale(1 1) rotate(0) translate(4 566.6)">
<title>G</title>
<polygon fill="#ffffff" stroke="transparent" points="-4,4 -4,-566.6 757.4542,-566.6 757.4542,4 -4,4"/>
<!-- a1 -->
<g id="node1" class="node">
<title>a1</title>
<ellipse fill="none" stroke="#000000" cx="97.6224" cy="-544.6" rx="51.5996" ry="18"/>
<text text-anchor="middle" x="97.6224" y="-540.4" font-family="Times,serif" font-size="14.00" fill="#000000">hsort(List)</text>
</g>
<!-- a2 -->
<g id="node2" class="node">
<title>a2</title>
<polygon fill="none" stroke="#000000" points="195.3674,-489.4019 -.1226,-489.4019 -.1226,-448.1981 195.3674,-448.1981 195.3674,-489.4019"/>
<text text-anchor="middle" x="97.6224" y="-473" font-family="Times,serif" font-size="14.00" fill="#000000">&lt;N1&gt; create Max-Heap</text>
<text text-anchor="middle" x="97.6224" y="-456.2" font-family="Times,serif" font-size="14.00" fill="#000000">from List with buildMaxHeap/1</text>
</g>
<!-- a1&#45;&gt;a2 -->
<g id="edge1" class="edge">
<title>a1-&gt;a2</title>
<path fill="none" stroke="#000000" d="M97.6224,-526.2509C97.6224,-518.315 97.6224,-508.8041 97.6224,-499.8258"/>
<polygon fill="#000000" stroke="#000000" points="101.1225,-499.6568 97.6224,-489.6568 94.1225,-499.6569 101.1225,-499.6568"/>
</g>
<!-- a3 -->
<g id="node3" class="node">
<title>a3</title>
<polygon fill="none" stroke="#000000" points="186.99,-378.2019 8.2548,-378.2019 8.2548,-336.9981 186.99,-336.9981 186.99,-378.2019"/>
<text text-anchor="middle" x="97.6224" y="-361.8" font-family="Times,serif" font-size="14.00" fill="#000000">&lt;N2&gt; get Output-List from</text>
<text text-anchor="middle" x="97.6224" y="-345" font-family="Times,serif" font-size="14.00" fill="#000000">overloaded hsort(Max-Heap)</text>
</g>
<!-- a2&#45;&gt;a3 -->
<g id="edge2" class="edge">
<title>a2-&gt;a3</title>
<path fill="none" stroke="#000000" d="M97.6224,-448.1447C97.6224,-431.4758 97.6224,-407.7599 97.6224,-388.7811"/>
<polygon fill="#000000" stroke="#000000" points="101.1225,-388.522 97.6224,-378.522 94.1225,-388.522 101.1225,-388.522"/>
</g>
<!-- a4 -->
<g id="node4" class="node">
<title>a4</title>
<polygon fill="none" stroke="#000000" points="156.8759,-280.2 38.3689,-280.2 38.3689,-244.2 156.8759,-244.2 156.8759,-280.2"/>
<text text-anchor="middle" x="97.6224" y="-258" font-family="Times,serif" font-size="14.00" fill="#000000">return Output-List</text>
</g>
<!-- a3&#45;&gt;a4 -->
<g id="edge3" class="edge">
<title>a3-&gt;a4</title>
<path fill="none" stroke="#000000" d="M97.6224,-336.8996C97.6224,-323.3176 97.6224,-305.381 97.6224,-290.4883"/>
<polygon fill="#000000" stroke="#000000" points="101.1225,-290.2877 97.6224,-280.2878 94.1225,-290.2878 101.1225,-290.2877"/>
</g>
<!-- b1 -->
<g id="node5" class="node">
<title>b1</title>
<ellipse fill="none" stroke="#000000" cx="521.6224" cy="-544.6" rx="78.1288" ry="18"/>
<text text-anchor="middle" x="521.6224" y="-540.4" font-family="Times,serif" font-size="14.00" fill="#000000">hsort(Max-Heap)</text>
</g>
<!-- abort1 -->
<g id="node11" class="node">
<title>abort1</title>
<polygon fill="none" stroke="#000000" points="446.6224,-486.8 326.1052,-468.8 446.6224,-450.8 567.1396,-468.8 446.6224,-486.8"/>
<text text-anchor="middle" x="446.6224" y="-464.6" font-family="Times,serif" font-size="14.00" fill="#000000">&lt;N3&gt; heap empty?</text>
</g>
<!-- b1&#45;&gt;abort1 -->
<g id="edge9" class="edge">
<title>b1-&gt;abort1</title>
<path fill="none" stroke="#000000" d="M504.2274,-527.0194C493.8905,-516.5723 480.6601,-503.2008 469.4861,-491.9076"/>
<polygon fill="#000000" stroke="#000000" points="471.6612,-489.1296 462.1397,-484.4828 466.6852,-494.053 471.6612,-489.1296"/>
</g>
<!-- b2 -->
<g id="node6" class="node">
<title>b2</title>
<polygon fill="none" stroke="#000000" points="348.4907,-395.3003 204.7541,-395.3003 204.7541,-319.8997 348.4907,-319.8997 348.4907,-395.3003"/>
<text text-anchor="middle" x="276.6224" y="-378.6" font-family="Times,serif" font-size="14.00" fill="#000000">&lt;N4&gt; get root element</text>
<text text-anchor="middle" x="276.6224" y="-361.8" font-family="Times,serif" font-size="14.00" fill="#000000">from Max-Heap</text>
<text text-anchor="middle" x="276.6224" y="-345" font-family="Times,serif" font-size="14.00" fill="#000000">and prepend to</text>
<text text-anchor="middle" x="276.6224" y="-328.2" font-family="Times,serif" font-size="14.00" fill="#000000">Output-List</text>
</g>
<!-- b3 -->
<g id="node7" class="node">
<title>b3</title>
<polygon fill="none" stroke="#000000" points="371.8656,-282.8019 193.3792,-282.8019 193.3792,-241.5981 371.8656,-241.5981 371.8656,-282.8019"/>
<text text-anchor="middle" x="282.6224" y="-266.4" font-family="Times,serif" font-size="14.00" fill="#000000">&lt;N5&gt; swap root element and</text>
<text text-anchor="middle" x="282.6224" y="-249.6" font-family="Times,serif" font-size="14.00" fill="#000000">last element in Max-Heap</text>
</g>
<!-- b2&#45;&gt;b3 -->
<g id="edge4" class="edge">
<title>b2-&gt;b3</title>
<path fill="none" stroke="#000000" d="M278.9938,-319.8954C279.5573,-310.9349 280.1519,-301.4816 280.6929,-292.8786"/>
<polygon fill="#000000" stroke="#000000" points="284.186,-293.0967 281.3207,-282.8967 277.1998,-292.6573 284.186,-293.0967"/>
</g>
<!-- b4 -->
<g id="node8" class="node">
<title>b4</title>
<polygon fill="none" stroke="#000000" points="411.6368,-204.6014 249.608,-204.6014 249.608,-145.7986 411.6368,-145.7986 411.6368,-204.6014"/>
<text text-anchor="middle" x="330.6224" y="-187.8" font-family="Times,serif" font-size="14.00" fill="#000000">&lt;N6&gt; remove former root</text>
<text text-anchor="middle" x="330.6224" y="-171" font-family="Times,serif" font-size="14.00" fill="#000000">(now last element) from</text>
<text text-anchor="middle" x="330.6224" y="-154.2" font-family="Times,serif" font-size="14.00" fill="#000000">Max-Heap</text>
</g>
<!-- b3&#45;&gt;b4 -->
<g id="edge5" class="edge">
<title>b3-&gt;b4</title>
<path fill="none" stroke="#000000" d="M293.9977,-241.5822C298.6673,-233.1185 304.2283,-223.0392 309.5888,-213.3233"/>
<polygon fill="#000000" stroke="#000000" points="312.6578,-215.006 314.4241,-204.5595 306.5287,-211.6245 312.6578,-215.006"/>
</g>
<!-- b5 -->
<g id="node9" class="node">
<title>b5</title>
<polygon fill="none" stroke="#000000" points="559.3853,-109 233.8595,-109 233.8595,-73 559.3853,-73 559.3853,-109"/>
<text text-anchor="middle" x="396.6224" y="-86.8" font-family="Times,serif" font-size="14.00" fill="#000000">&lt;N7&gt; use heapify/1 reduced Heap (back to Max-Heap)</text>
</g>
<!-- b4&#45;&gt;b5 -->
<g id="edge6" class="edge">
<title>b4-&gt;b5</title>
<path fill="none" stroke="#000000" d="M353.706,-145.7509C360.9919,-136.4559 368.9887,-126.2539 376.0844,-117.2014"/>
<polygon fill="#000000" stroke="#000000" points="378.8868,-119.2997 382.3014,-109.2701 373.3776,-114.9813 378.8868,-119.2997"/>
</g>
<!-- b6 -->
<g id="node10" class="node">
<title>b6</title>
<polygon fill="none" stroke="#000000" points="617.9776,-36 373.2672,-36 373.2672,0 617.9776,0 617.9776,-36"/>
<text text-anchor="middle" x="495.6224" y="-13.8" font-family="Times,serif" font-size="14.00" fill="#000000">&lt;N8&gt; prepend max-element to outputlist</text>
</g>
<!-- b5&#45;&gt;b6 -->
<g id="edge7" class="edge">
<title>b5-&gt;b6</title>
<path fill="none" stroke="#000000" d="M421.0943,-72.9551C433.7075,-63.6545 449.2627,-52.1844 462.8938,-42.1332"/>
<polygon fill="#000000" stroke="#000000" points="465.1175,-44.8421 471.0889,-36.0904 460.9632,-39.2082 465.1175,-44.8421"/>
</g>
<!-- b6&#45;&gt;b1 -->
<g id="edge8" class="edge">
<title>b6-&gt;b1</title>
<path fill="none" stroke="#000000" d="M550.3038,-36.0783C573.6497,-47.554 595.6224,-65.2062 595.6224,-91 595.6224,-468.8 595.6224,-468.8 595.6224,-468.8 595.6224,-490.9267 579.2778,-508.9977 561.9516,-521.938"/>
<polygon fill="#000000" stroke="#000000" points="559.6376,-519.2845 553.4345,-527.8736 563.6399,-525.0275 559.6376,-519.2845"/>
<text text-anchor="middle" x="674.5383" y="-258" font-family="Times,serif" font-size="14.00" fill="#000000"> continue with reduced heap</text>
</g>
<!-- abort1&#45;&gt;b2 -->
<g id="edge10" class="edge">
<title>abort1-&gt;b2</title>
<path fill="none" stroke="#000000" d="M424.0477,-454.0335C403.3322,-440.4831 371.5919,-419.7212 342.8614,-400.9281"/>
<polygon fill="#000000" stroke="#000000" points="344.7393,-397.9742 334.4547,-395.4291 340.9074,-403.8323 344.7393,-397.9742"/>
<text text-anchor="middle" x="400.8349" y="-417.4" font-family="Times,serif" font-size="14.00" fill="#000000">false</text>
</g>
<!-- abort2 -->
<g id="node12" class="node">
<title>abort2</title>
<polygon fill="none" stroke="#000000" points="567.1926,-375.6 366.0522,-375.6 366.0522,-339.6 567.1926,-339.6 567.1926,-375.6"/>
<text text-anchor="middle" x="466.6224" y="-353.4" font-family="Times,serif" font-size="14.00" fill="#000000">return empty heap and Outputlist</text>
</g>
<!-- abort1&#45;&gt;abort2 -->
<g id="edge11" class="edge">
<title>abort1-&gt;abort2</title>
<path fill="none" stroke="#000000" d="M449.8357,-450.9338C452.9952,-433.3675 457.8658,-406.2865 461.5485,-385.8111"/>
<polygon fill="#000000" stroke="#000000" points="465.0251,-386.2529 463.3506,-375.7913 458.1356,-385.0138 465.0251,-386.2529"/>
<text text-anchor="middle" x="469.2553" y="-417.4" font-family="Times,serif" font-size="14.00" fill="#000000"> true</text>
</g>
</g>
</svg>