<?xml version="1.0" encoding="UTF-8" standalone="no"?>
<!DOCTYPE svg PUBLIC "-//W3C//DTD SVG 1.1//EN" "http://www.w3.org/Graphics/SVG/1.1/DTD/svg11.dtd">
<!-- Generated by graphviz version 2.40.1 (20161225.0304)
 -->
<!-- Title: G Pages: 1 -->
<svg width="725pt" height="513pt" viewBox="0.00 0.00 725.45 513.40" xmlns="http://www.w3.org/2000/svg" xmlns:xlink="http://www.w3.org/1999/xlink">
<g id="graph0" class="graph" transform="scale(1 1) rotate(0) translate(4 509.4)">
<title>G</title>
<polygon fill="#ffffff" stroke="transparent" points="-4,4 -4,-509.4 721.4542,-509.4 721.4542,4 -4,4"/>
<!-- a1 -->
<g id="node1" class="node">
<title>a1</title>
<ellipse fill="none" stroke="#000000" cx="97.6224" cy="-487.4" rx="51.5996" ry="18"/>
<text text-anchor="middle" x="97.6224" y="-483.2" font-family="Times,serif" font-size="14.00" fill="#000000">hsort(List)</text>
</g>
<!-- a2 -->
<g id="node2" class="node">
<title>a2</title>
<polygon fill="none" stroke="#000000" points="195.3674,-432.2019 -.1226,-432.2019 -.1226,-390.9981 195.3674,-390.9981 195.3674,-432.2019"/>
<text text-anchor="middle" x="97.6224" y="-415.8" font-family="Times,serif" font-size="14.00" fill="#000000">create Max-Heap</text>
<text text-anchor="middle" x="97.6224" y="-399" font-family="Times,serif" font-size="14.00" fill="#000000">from List with buildMaxHeap/1</text>
</g>
<!-- a1&#45;&gt;a2 -->
<g id="edge1" class="edge">
<title>a1-&gt;a2</title>
<path fill="none" stroke="#000000" d="M97.6224,-469.0509C97.6224,-461.115 97.6224,-451.6041 97.6224,-442.6258"/>
<polygon fill="#000000" stroke="#000000" points="101.1225,-442.4568 97.6224,-432.4568 94.1225,-442.4569 101.1225,-442.4568"/>
</g>
<!-- a3 -->
<g id="node3" class="node">
<title>a3</title>
<polygon fill="none" stroke="#000000" points="186.99,-321.0019 8.2548,-321.0019 8.2548,-279.7981 186.99,-279.7981 186.99,-321.0019"/>
<text text-anchor="middle" x="97.6224" y="-304.6" font-family="Times,serif" font-size="14.00" fill="#000000">get Output-List from</text>
<text text-anchor="middle" x="97.6224" y="-287.8" font-family="Times,serif" font-size="14.00" fill="#000000">overloaded hsort(Max-Heap)</text>
</g>
<!-- a2&#45;&gt;a3 -->
<g id="edge2" class="edge">
<title>a2-&gt;a3</title>
<path fill="none" stroke="#000000" d="M97.6224,-390.9447C97.6224,-374.2758 97.6224,-350.5599 97.6224,-331.5811"/>
<polygon fill="#000000" stroke="#000000" points="101.1225,-331.322 97.6224,-321.322 94.1225,-331.322 101.1225,-331.322"/>
</g>
<!-- a4 -->
<g id="node4" class="node">
<title>a4</title>
<polygon fill="none" stroke="#000000" points="156.8759,-207.2 38.3689,-207.2 38.3689,-171.2 156.8759,-171.2 156.8759,-207.2"/>
<text text-anchor="middle" x="97.6224" y="-185" font-family="Times,serif" font-size="14.00" fill="#000000">return Output-List</text>
</g>
<!-- a3&#45;&gt;a4 -->
<g id="edge3" class="edge">
<title>a3-&gt;a4</title>
<path fill="none" stroke="#000000" d="M97.6224,-279.7447C97.6224,-262.2564 97.6224,-237.0111 97.6224,-217.6178"/>
<polygon fill="#000000" stroke="#000000" points="101.1225,-217.5322 97.6224,-207.5322 94.1225,-217.5323 101.1225,-217.5322"/>
</g>
<!-- b1 -->
<g id="node5" class="node">
<title>b1</title>
<ellipse fill="none" stroke="#000000" cx="495.6224" cy="-487.4" rx="78.1288" ry="18"/>
<text text-anchor="middle" x="495.6224" y="-483.2" font-family="Times,serif" font-size="14.00" fill="#000000">hsort(Max-Heap)</text>
</g>
<!-- abort1 -->
<g id="node10" class="node">
<title>abort1</title>
<polygon fill="none" stroke="#000000" points="430.6224,-429.6 345.6133,-411.6 430.6224,-393.6 515.6315,-411.6 430.6224,-429.6"/>
<text text-anchor="middle" x="430.6224" y="-407.4" font-family="Times,serif" font-size="14.00" fill="#000000">heap empty?</text>
</g>
<!-- b1&#45;&gt;abort1 -->
<g id="edge8" class="edge">
<title>b1-&gt;abort1</title>
<path fill="none" stroke="#000000" d="M480.2183,-469.4365C471.2763,-459.0087 459.9206,-445.7662 450.3321,-434.5846"/>
<polygon fill="#000000" stroke="#000000" points="452.8889,-432.1894 443.7223,-426.8766 447.575,-436.7461 452.8889,-432.1894"/>
</g>
<!-- b2 -->
<g id="node6" class="node">
<title>b2</title>
<polygon fill="none" stroke="#000000" points="312.0944,-338.1003 205.1504,-338.1003 205.1504,-262.6997 312.0944,-262.6997 312.0944,-338.1003"/>
<text text-anchor="middle" x="258.6224" y="-321.4" font-family="Times,serif" font-size="14.00" fill="#000000">get root element</text>
<text text-anchor="middle" x="258.6224" y="-304.6" font-family="Times,serif" font-size="14.00" fill="#000000">from Max-Heap</text>
<text text-anchor="middle" x="258.6224" y="-287.8" font-family="Times,serif" font-size="14.00" fill="#000000">and prepend to</text>
<text text-anchor="middle" x="258.6224" y="-271" font-family="Times,serif" font-size="14.00" fill="#000000">Output-List</text>
</g>
<!-- b3 -->
<g id="node7" class="node">
<title>b3</title>
<polygon fill="none" stroke="#000000" points="435.1246,-209.8019 274.1202,-209.8019 274.1202,-168.5981 435.1246,-168.5981 435.1246,-209.8019"/>
<text text-anchor="middle" x="354.6224" y="-193.4" font-family="Times,serif" font-size="14.00" fill="#000000">swap root element and</text>
<text text-anchor="middle" x="354.6224" y="-176.6" font-family="Times,serif" font-size="14.00" fill="#000000">last element in Max-Heap</text>
</g>
<!-- b2&#45;&gt;b3 -->
<g id="edge4" class="edge">
<title>b2-&gt;b3</title>
<path fill="none" stroke="#000000" d="M291.1236,-262.7528C303.8555,-248.005 318.2171,-231.3695 330.0575,-217.6543"/>
<polygon fill="#000000" stroke="#000000" points="332.8208,-219.8095 336.7063,-209.9529 327.5221,-215.2351 332.8208,-219.8095"/>
</g>
<!-- b4 -->
<g id="node8" class="node">
<title>b4</title>
<polygon fill="none" stroke="#000000" points="531.018,-131.6014 380.2268,-131.6014 380.2268,-72.7986 531.018,-72.7986 531.018,-131.6014"/>
<text text-anchor="middle" x="455.6224" y="-114.8" font-family="Times,serif" font-size="14.00" fill="#000000">remove former root</text>
<text text-anchor="middle" x="455.6224" y="-98" font-family="Times,serif" font-size="14.00" fill="#000000">(now last element) from</text>
<text text-anchor="middle" x="455.6224" y="-81.2" font-family="Times,serif" font-size="14.00" fill="#000000">Max-Heap</text>
</g>
<!-- b3&#45;&gt;b4 -->
<g id="edge5" class="edge">
<title>b3-&gt;b4</title>
<path fill="none" stroke="#000000" d="M378.558,-168.5822C389.0855,-159.514 401.7661,-148.5911 413.774,-138.2476"/>
<polygon fill="#000000" stroke="#000000" points="416.246,-140.7378 421.5384,-131.5595 411.6775,-135.4341 416.246,-140.7378"/>
</g>
<!-- b5 -->
<g id="node9" class="node">
<title>b5</title>
<polygon fill="none" stroke="#000000" points="651.9894,-36 363.2554,-36 363.2554,0 651.9894,0 651.9894,-36"/>
<text text-anchor="middle" x="507.6224" y="-13.8" font-family="Times,serif" font-size="14.00" fill="#000000">use heapify/1 reduced Heap (back to Max-Heap)</text>
</g>
<!-- b4&#45;&gt;b5 -->
<g id="edge6" class="edge">
<title>b4-&gt;b5</title>
<path fill="none" stroke="#000000" d="M473.8095,-72.7509C479.3741,-63.7405 485.4652,-53.8777 490.9256,-45.036"/>
<polygon fill="#000000" stroke="#000000" points="494.0625,-46.6175 496.3392,-36.2701 488.1067,-42.9393 494.0625,-46.6175"/>
</g>
<!-- b5&#45;&gt;b1 -->
<g id="edge7" class="edge">
<title>b5-&gt;b1</title>
<path fill="none" stroke="#000000" d="M526.9853,-36.0975C541.7696,-51.9501 559.6224,-76.4284 559.6224,-102.2 559.6224,-411.6 559.6224,-411.6 559.6224,-411.6 559.6224,-432.4265 545.343,-450.4903 530.274,-463.7546"/>
<polygon fill="#000000" stroke="#000000" points="527.8889,-461.1847 522.3933,-470.2428 532.3382,-466.5888 527.8889,-461.1847"/>
<text text-anchor="middle" x="638.5383" y="-232.2" font-family="Times,serif" font-size="14.00" fill="#000000"> continue with reduced heap</text>
</g>
<!-- abort1&#45;&gt;b2 -->
<g id="edge9" class="edge">
<title>abort1-&gt;b2</title>
<path fill="none" stroke="#000000" d="M409.5318,-397.9647C387.5569,-383.7577 352.064,-360.8111 321.019,-340.7401"/>
<polygon fill="#000000" stroke="#000000" points="322.6937,-337.6551 312.3956,-335.165 318.8932,-343.5336 322.6937,-337.6551"/>
<text text-anchor="middle" x="383.8349" y="-360.2" font-family="Times,serif" font-size="14.00" fill="#000000">false</text>
</g>
<!-- abort2 -->
<g id="node11" class="node">
<title>abort2</title>
<polygon fill="none" stroke="#000000" points="531.1926,-318.4 330.0522,-318.4 330.0522,-282.4 531.1926,-282.4 531.1926,-318.4"/>
<text text-anchor="middle" x="430.6224" y="-296.2" font-family="Times,serif" font-size="14.00" fill="#000000">return empty heap and Outputlist</text>
</g>
<!-- abort1&#45;&gt;abort2 -->
<g id="edge10" class="edge">
<title>abort1-&gt;abort2</title>
<path fill="none" stroke="#000000" d="M430.6224,-393.2376C430.6224,-375.6683 430.6224,-348.9179 430.6224,-328.6375"/>
<polygon fill="#000000" stroke="#000000" points="434.1225,-328.4207 430.6224,-318.4207 427.1225,-328.4208 434.1225,-328.4207"/>
<text text-anchor="middle" x="443.2553" y="-360.2" font-family="Times,serif" font-size="14.00" fill="#000000"> true</text>
</g>
</g>
</svg>